<svg width="705" height="401" viewBox="0 0 705 401" fill="none" xmlns="http://www.w3.org/2000/svg">
<g clip-path="url(#clip0)">
<path opacity="0.1" d="M254.515 300.02C387.932 300.02 496.088 297.126 496.088 293.555C496.088 289.985 387.932 287.09 254.515 287.09C121.098 287.09 12.9414 289.985 12.9414 293.555C12.9414 297.126 121.098 300.02 254.515 300.02Z" fill="#00956A"/>
<g opacity="0.7">
<path opacity="0.7" d="M164.541 245.836H87.5087V288.322H164.541V245.836Z" fill="#65617D"/>
<path opacity="0.1" d="M138.042 253.225H114.624V258.151H138.042V253.225Z" fill="black"/>
<path opacity="0.1" d="M135.115 253.841H117.551V257.535H135.115V253.841Z" fill="black"/>
<path opacity="0.7" d="M242.806 245.836H165.774V288.322H242.806V245.836Z" fill="#65617D"/>
<path opacity="0.1" d="M216.307 253.225H192.889V258.151H216.307V253.225Z" fill="black"/>
<path opacity="0.1" d="M213.38 253.841H195.816V257.535H213.38V253.841Z" fill="black"/>
<path opacity="0.7" d="M164.541 202.119H87.5087V244.605H164.541V202.119Z" fill="#65617D"/>
<path opacity="0.1" d="M138.042 209.508H114.624V214.434H138.042V209.508Z" fill="black"/>
<path opacity="0.1" d="M135.115 210.124H117.551V213.818H135.115V210.124Z" fill="black"/>
<path opacity="0.7" d="M242.806 202.119H165.774V244.605H242.806V202.119Z" fill="#65617D"/>
<path opacity="0.1" d="M216.307 209.508H192.889V214.434H216.307V209.508Z" fill="black"/>
<path opacity="0.1" d="M213.38 210.124H195.816V213.818H213.38V210.124Z" fill="black"/>
<path opacity="0.7" d="M164.541 157.787H87.5087V200.272H164.541V157.787Z" fill="#65617D"/>
<path opacity="0.1" d="M138.042 165.176H114.624V170.101H138.042V165.176Z" fill="black"/>
<path opacity="0.1" d="M135.115 165.791H117.551V169.486H135.115V165.791Z" fill="black"/>
<path opacity="0.7" d="M242.806 157.787H165.774V200.272H242.806V157.787Z" fill="#65617D"/>
<path opacity="0.1" d="M216.307 165.176H192.889V170.101H216.307V165.176Z" fill="black"/>
<path opacity="0.1" d="M213.38 165.791H195.816V169.486H213.38V165.791Z" fill="black"/>
<path opacity="0.7" d="M242.806 113.454H165.774V155.94H242.806V113.454Z" fill="#65617D"/>
<path opacity="0.1" d="M216.307 120.843H192.889V125.769H216.307V120.843Z" fill="black"/>
<path opacity="0.1" d="M213.38 121.459H195.816V125.153H213.38V121.459Z" fill="black"/>
</g>
<g opacity="0.7">
<path opacity="0.7" d="M321.071 245.22H244.038V287.706H321.071V245.22Z" fill="#65617D"/>
<path opacity="0.1" d="M294.572 252.609H271.154V257.535H294.572V252.609Z" fill="black"/>
<path opacity="0.1" d="M291.644 253.225H274.081V256.919H291.644V253.225Z" fill="black"/>
<path opacity="0.7" d="M399.336 245.22H322.303V287.706H399.336V245.22Z" fill="#65617D"/>
<path opacity="0.1" d="M372.837 252.609H349.419V257.535H372.837V252.609Z" fill="black"/>
<path opacity="0.1" d="M369.909 253.225H352.346V256.919H369.909V253.225Z" fill="black"/>
<path opacity="0.7" d="M321.071 201.504H244.038V243.989H321.071V201.504Z" fill="#65617D"/>
<path opacity="0.1" d="M294.572 208.892H271.154V213.818H294.572V208.892Z" fill="black"/>
<path opacity="0.1" d="M291.644 209.508H274.081V213.202H291.644V209.508Z" fill="black"/>
<path opacity="0.7" d="M399.336 201.504H322.303V243.989H399.336V201.504Z" fill="#65617D"/>
<path opacity="0.1" d="M372.837 208.892H349.419V213.818H372.837V208.892Z" fill="black"/>
<path opacity="0.1" d="M369.909 209.508H352.346V213.202H369.909V209.508Z" fill="black"/>
<path opacity="0.7" d="M321.071 157.171H244.038V199.656H321.071V157.171Z" fill="#65617D"/>
<path opacity="0.1" d="M294.572 164.56H271.154V169.486H294.572V164.56Z" fill="black"/>
<path opacity="0.1" d="M291.644 165.176H274.081V168.87H291.644V165.176Z" fill="black"/>
<path opacity="0.7" d="M399.336 157.171H322.303V199.656H399.336V157.171Z" fill="#65617D"/>
<path opacity="0.1" d="M372.837 164.56H349.419V169.486H372.837V164.56Z" fill="black"/>
<path opacity="0.1" d="M369.909 165.176H352.346V168.87H369.909V165.176Z" fill="black"/>
<path opacity="0.7" d="M399.336 112.839H322.303V155.324H399.336V112.839Z" fill="#65617D"/>
<path opacity="0.1" d="M372.837 120.227H349.419V125.153H372.837V120.227Z" fill="black"/>
<path opacity="0.1" d="M369.909 120.843H352.346V124.537H369.909V120.843Z" fill="black"/>
</g>
<path opacity="0.1" d="M541.254 0.0677335C541.254 0.0677335 489.371 -3.06018 495.472 33.2679C495.472 33.2679 494.24 39.6899 500.082 42.6023C500.082 42.6023 500.174 39.9116 505.406 40.829C507.269 41.1375 509.161 41.2284 511.045 41.0999C513.59 40.9244 516.008 39.9258 517.935 38.2553C517.935 38.2553 532.521 32.2334 538.191 8.41702C538.191 8.41702 542.388 3.22027 542.221 1.88413L533.464 5.62161C533.464 5.62161 536.459 11.9328 534.081 17.1789C534.081 17.1789 533.797 5.84943 532.115 6.09573C531.776 6.15114 527.567 8.28157 527.567 8.28157C527.567 8.28157 532.713 19.2723 528.83 27.2645C528.83 27.2645 530.303 13.7185 525.958 9.07585L519.796 12.6717C519.796 12.6717 525.81 24.0258 521.731 33.2925C521.731 33.2925 522.778 19.0815 518.495 13.546L512.912 17.8993C512.912 17.8993 518.563 29.0932 515.118 36.7775C515.118 36.7775 514.669 20.2329 511.704 18.9829C511.704 18.9829 506.817 23.293 506.072 25.054C506.072 25.054 509.942 33.1817 507.538 37.4671C507.538 37.4671 506.066 26.4456 504.858 26.384C504.858 26.384 499.989 33.6866 499.484 38.6986C499.484 38.6986 499.693 31.2483 503.681 25.6882C503.681 25.6882 498.972 26.4948 496.224 29.5489C496.224 29.5489 496.982 24.3829 504.882 23.9334C504.882 23.9334 508.906 18.3918 509.979 18.0532C509.979 18.0532 502.128 17.4005 497.364 19.5063C497.364 19.5063 501.555 14.6359 511.421 16.8525L516.936 12.3515C516.936 12.3515 506.595 10.9415 502.208 12.4993C502.208 12.4993 507.255 8.1892 518.421 11.3356L524.436 7.77666C524.436 7.77666 515.618 5.88022 510.367 6.54521C510.367 6.54521 515.913 3.55892 526.199 6.79766L530.512 4.87042C530.512 4.87042 524.054 3.60202 522.162 3.39883C520.27 3.19564 520.172 2.67843 520.172 2.67843C524.263 1.99672 528.464 2.46355 532.306 4.02687C532.306 4.02687 541.414 0.640362 541.254 0.0677335Z" fill="#00956A"/>
<path opacity="0.1" d="M477.262 9.30983C477.262 9.30983 453.844 7.89365 456.586 24.3152C456.586 24.3152 456.038 27.2152 458.663 28.5329C458.663 28.5329 458.706 27.3014 461.072 27.7263C461.913 27.8676 462.767 27.909 463.618 27.8494C464.768 27.7713 465.861 27.3194 466.73 26.5626C466.73 26.5626 473.324 23.8472 475.887 13.0842C475.887 13.0842 477.779 10.7322 477.705 10.1288L473.749 11.8158C473.749 11.8158 475.105 14.6728 474.039 17.0434C474.039 17.0434 473.909 11.9205 473.151 12.0437C472.997 12.0437 471.093 13.0288 471.093 13.0288C471.093 13.0288 473.422 17.9978 471.666 21.6121C471.666 21.6121 472.332 15.4917 470.366 13.3921L467.58 15.0176C467.58 15.0176 470.304 20.1467 468.455 24.3336C468.455 24.3336 468.93 17.9116 466.995 15.4117L464.474 17.3759C464.474 17.3759 467.026 22.4372 465.473 25.9099C465.473 25.9099 465.269 18.4288 463.926 17.8685C463.926 17.8685 461.72 19.8142 461.381 20.6146C461.381 20.6146 463.131 24.309 462.046 26.2178C462.046 26.2178 461.381 21.2365 460.814 21.218C460.814 21.218 458.62 24.5183 458.386 26.7596C458.495 24.6679 459.15 22.6411 460.284 20.8794C459.014 21.1197 457.842 21.7253 456.913 22.6219C456.913 22.6219 457.258 20.2944 460.826 20.0851C460.826 20.0851 462.675 17.5852 463.131 17.4313C463.131 17.4313 459.581 17.1357 457.43 18.0901C457.43 18.0901 459.322 15.8858 463.784 16.8895L466.249 14.8575C466.249 14.8575 461.578 14.2418 459.593 14.9253C459.593 14.9253 461.874 12.9796 466.921 14.3958L469.632 12.7764C469.632 12.7764 465.651 11.9144 463.273 12.2284C463.273 12.2284 465.781 10.8738 470.427 12.3392L472.369 11.471C472.369 11.471 469.447 10.8922 468.591 10.806C467.734 10.7198 467.691 10.4797 467.691 10.4797C469.541 10.1722 471.44 10.3854 473.176 11.0954C473.176 11.0954 477.336 9.56844 477.262 9.30983Z" fill="#00956A"/>
<path d="M138.159 396.998C151.845 396.998 162.939 395.123 162.939 392.811C162.939 390.498 151.845 388.624 138.159 388.624C124.474 388.624 113.379 390.498 113.379 392.811C113.379 395.123 124.474 396.998 138.159 396.998Z" fill="#00956A"/>
<path d="M148.407 385.964C149.539 385.043 150.362 383.799 150.768 382.399C151.076 380.989 150.472 379.32 149.116 378.772C147.6 378.193 145.979 379.246 144.753 380.305C143.527 381.364 142.115 382.577 140.513 382.35C141.339 381.6 141.957 380.65 142.306 379.592C142.656 378.533 142.726 377.403 142.51 376.309C142.44 375.856 142.248 375.431 141.955 375.078C141.111 374.179 139.589 374.561 138.578 375.269C135.374 377.522 134.48 381.875 134.461 385.785C134.141 384.375 134.412 382.904 134.406 381.475C134.4 380.047 133.999 378.397 132.773 377.639C132.017 377.233 131.166 377.033 130.308 377.06C128.872 377.005 127.264 377.153 126.284 378.206C125.051 379.511 125.378 381.703 126.438 383.131C127.498 384.56 129.119 385.477 130.61 386.469C131.803 387.179 132.82 388.15 133.586 389.307C133.679 389.469 133.753 389.64 133.808 389.818H142.843C144.863 388.79 146.735 387.494 148.407 385.964Z" fill="#00956A"/>
<path d="M442.079 210.586C442.029 210.119 441.862 209.673 441.594 209.288C441.326 208.903 440.965 208.591 440.545 208.381C440.191 208.231 439.811 208.153 439.426 208.152C439.042 208.151 438.661 208.228 438.307 208.377C437.953 208.527 437.632 208.746 437.365 209.022C437.097 209.297 436.888 209.624 436.749 209.982L423.062 238.755L419.98 352.049H424.91L426.759 239.008L441.821 212.371C442.093 211.818 442.184 211.193 442.079 210.586Z" fill="#3F3D56"/>
<path opacity="0.1" d="M662.823 377.639C658.785 381.165 654.438 384.32 649.833 387.066C649.761 387.167 649.68 387.262 649.592 387.349C649.103 387.764 648.522 388.055 647.897 388.199C632.626 396.703 615.414 401.119 597.931 401.018H259.1C220.276 397.028 196.587 391.739 196.587 385.933C196.587 381.432 210.81 377.239 235.3 373.729C237.839 373.36 240.487 373.003 243.243 372.658C244.94 372.444 246.676 372.239 248.451 372.042L251.464 371.691C253.699 371.437 255.994 371.188 258.348 370.946H258.539L261.004 370.7C263.087 370.484 265.213 370.281 267.382 370.084L268.96 369.943L272.984 369.585C275.597 369.351 278.268 369.128 280.996 368.914C283.259 368.738 285.56 368.561 287.898 368.385C311.599 366.63 338.924 365.306 368.658 364.45L377.15 364.161L380.01 364.099L386.049 363.964L388.471 363.915L391.016 363.865L392.828 363.835L401.332 363.699L405.702 363.638H406.595C416.928 363.514 427.454 363.451 438.172 363.447C459.359 363.447 479.905 363.699 499.484 364.179C510.724 364.45 521.622 364.795 532.176 365.214H532.275C562.706 366.408 589.944 368.169 612.487 370.355L612.9 370.398C618.687 370.959 624.165 371.556 629.305 372.172C634.143 372.75 638.684 373.36 642.9 373.982C644.36 374.197 645.778 374.419 647.158 374.634L647.509 374.696C653.351 375.638 658.479 376.599 662.823 377.639Z" fill="#00956A"/>
<path d="M649.833 387.066C649.761 387.167 649.68 387.262 649.592 387.349C649.103 387.764 648.522 388.055 647.898 388.199C646.651 388.548 645.37 388.755 644.077 388.815H643.689C642.95 388.839 642.211 388.815 641.476 388.741C640.94 388.663 640.398 388.628 639.855 388.636H639.782C638.993 388.747 638.219 388.939 637.471 389.209C635.803 389.666 634.084 389.91 632.356 389.935H631.739C629.804 389.935 627.845 389.868 625.903 389.88C625.589 389.88 625.287 389.88 624.96 389.88C621.633 389.966 618.323 390.496 614.996 390.551H613.929C610.669 390.471 607.335 389.775 604.741 387.805C604.218 387.459 603.793 386.984 603.508 386.426C603.287 385.837 603.213 385.203 603.293 384.579C603.354 383.464 603.57 382.251 604.408 381.5C604.935 381.096 605.539 380.805 606.183 380.644C607.311 380.281 608.445 379.93 609.572 379.579C610.7 379.228 611.988 378.852 613.202 378.495L613.436 378.421L614.114 378.218L614.552 378.07C615.082 377.9 615.591 377.669 616.068 377.381C616.697 376.983 617.229 376.451 617.627 375.823C617.695 375.712 617.769 375.595 617.83 375.478C617.892 375.361 617.83 375.287 617.787 375.189C617.682 374.419 617.602 373.631 617.467 372.88C615.732 372.478 614.151 371.584 612.913 370.306C611.849 369.252 610.953 368.041 610.257 366.716C608.722 363.835 607.933 360.614 606.787 357.554C605.031 352.899 602.473 348.601 599.897 344.341C597.543 340.412 595.177 336.472 592.502 332.759C590.721 330.296 588.805 327.95 587.042 325.481C582.056 318.591 578.479 310.787 576.516 302.514C576.216 300.927 575.789 299.366 575.241 297.847C574.181 295.261 572.239 293.155 570.736 290.791C569.119 288.242 568.012 285.405 567.476 282.435C567.168 280.748 566.65 278.925 564.968 278.741L564.789 279.092C561.301 285.865 557.72 292.761 552.464 298.29C551.623 299.103 550.854 299.987 550.165 300.932C549.613 301.848 549.119 302.798 548.686 303.776C547.854 305.533 546.75 307.148 545.414 308.561C545.016 308.962 544.583 309.327 544.12 309.65C543.504 310.098 542.819 310.441 542.092 310.666C541.806 310.754 541.513 310.82 541.217 310.863C541.217 310.937 541.248 311.005 541.254 311.079C541.26 311.153 541.291 311.239 541.303 311.319C542.21 316.245 541.821 321.322 540.176 326.053C540.132 326.201 540.083 326.343 540.028 326.491C539.773 327.18 539.496 327.857 539.196 328.522C538.444 330.154 537.55 331.718 536.848 333.374C536.731 333.658 536.614 333.941 536.509 334.224C534.044 340.819 534.66 348.183 534.34 355.27C534.311 356.819 534.128 358.362 533.791 359.875C533.372 361.581 532.7 363.342 532.331 365.103C531.993 366.423 531.966 367.803 532.25 369.136L532.103 369.191C531.443 369.438 530.771 369.659 530.1 369.869V369.961C530.34 371.34 530.574 372.72 530.815 374.093C531.018 375.275 531.258 376.556 532.084 377.393C532.309 377.578 532.515 377.784 532.7 378.009C533.187 378.772 532.756 379.782 532.848 380.687C532.984 381.968 534.167 383.058 533.982 384.332C533.899 384.713 533.724 385.068 533.473 385.366C533.222 385.664 532.901 385.897 532.54 386.044C532.237 386.181 531.918 386.283 531.591 386.346L531.388 386.389C531.018 386.456 530.648 386.493 530.278 386.53C525.687 386.986 521.035 387.442 516.487 386.666C515.587 386.512 514.693 386.309 513.781 386.235C512.629 386.183 511.474 386.231 510.33 386.376C501.893 387.175 493.408 387.339 484.946 386.869C482.746 386.746 480.22 386.389 479.055 384.511C478.087 382.953 478.439 380.94 478.926 379.16C479.065 378.506 479.317 377.881 479.671 377.313C479.711 377.251 479.756 377.194 479.807 377.141C480.941 375.73 483.073 375.644 484.909 375.7L490.912 375.878C491.503 375.926 492.098 375.88 492.674 375.743C493.648 375.46 494.387 374.684 495.3 374.247C496.446 373.699 497.888 373.631 498.714 372.695L498.818 372.559C498.964 372.361 499.1 372.156 499.225 371.944C499.225 371.901 499.281 371.858 499.311 371.814C499.334 371.776 499.359 371.739 499.385 371.704C500.143 370.706 501.468 370.374 502.547 369.739C502.71 369.644 502.865 369.535 503.009 369.413L503.132 369.302C501.971 368.475 500.958 367.457 500.137 366.291C499.82 365.951 499.586 365.542 499.453 365.097C499.378 364.762 499.403 364.413 499.527 364.093C499.554 364.015 499.587 363.938 499.626 363.865L499.656 363.804C500.076 362.979 500.938 362.234 501.413 361.39C501.431 361.363 501.445 361.334 501.456 361.304C502.109 360.072 502.239 358.164 501.271 357.172C501.764 349.063 503.995 341.163 504.488 333.03C504.685 329.809 504.605 326.577 504.753 323.344C504.901 320.112 505.246 316.978 505.61 313.807C506.423 306.559 508.395 299.46 508.118 292.182C508.094 291.504 508.123 290.824 508.204 290.15C508.201 290.101 508.201 290.052 508.204 290.002C508.401 288.511 508.867 287.068 509.578 285.742C510.472 284.243 511.483 282.818 512.604 281.481C516.394 276.555 520.948 271.629 522.298 265.57C522.994 262.442 524.535 259.579 526.069 256.765C526.975 255.091 527.918 253.373 529.366 252.141C530.151 251.599 530.879 250.98 531.542 250.294C532.552 248.989 532.589 247.185 533.187 245.633C533.495 244.826 533.97 244.087 534.204 243.256C534.204 243.17 534.247 243.09 534.266 243.004C534.402 242.165 534.474 241.317 534.481 240.467C534.481 240.221 534.518 239.981 534.549 239.74C534.909 237.306 535.617 234.936 536.651 232.703C536.78 232.419 536.903 232.13 537.026 231.847C534.183 230.189 531.675 228.016 529.631 225.437C528.938 224.603 528.337 223.697 527.838 222.734C526.569 220.216 526.279 217.346 525.681 214.588C524.251 208.012 520.979 201.818 520.523 195.094C520.387 193.044 520.523 190.925 519.808 188.986C519.611 188.462 519.379 187.951 519.112 187.459C519.001 187.25 518.896 187.04 518.785 186.843L518.662 186.609L518.348 185.993L517.842 186.387C505.235 196.251 491.998 205.284 478.217 213.43L477.034 214.132C476.418 214.429 475.881 214.868 475.468 215.413C475.419 215.493 475.376 215.573 475.333 215.653C475.049 216.238 474.975 216.885 474.716 217.5C474.162 218.91 472.738 219.809 471.284 220.228C468.653 220.904 465.862 220.545 463.488 219.224C463.186 219.07 462.872 218.91 462.601 218.732C461.88 219.131 461.12 219.455 460.333 219.698C457.868 220.413 455.286 220.382 452.735 220.376C450.183 220.37 447.576 220.376 445.161 221.213C443.546 221.761 441.981 222.666 440.305 222.752C440.112 222.765 439.918 222.765 439.725 222.752C438.77 222.643 437.84 222.37 436.977 221.946L436.471 221.718C436.21 221.594 435.955 221.456 435.707 221.306C435.438 221.139 435.187 220.943 434.962 220.721C434.635 220.393 434.398 219.989 434.271 219.545C434.188 219.223 434.188 218.887 434.271 218.566C434.295 218.421 434.369 218.29 434.481 218.196C434.591 218.131 434.717 218.099 434.845 218.104C435.551 218.096 436.257 218.156 436.952 218.282C437.36 218.338 437.773 218.361 438.185 218.35H438.407C438.77 218.311 439.121 218.198 439.439 218.018C439.757 217.838 440.035 217.595 440.255 217.303C440.323 217.213 440.377 217.114 440.415 217.008C440.49 216.835 440.528 216.648 440.526 216.46C440.53 216.413 440.53 216.365 440.526 216.318C440.268 216.201 440.009 216.084 439.762 215.942C439.633 215.875 439.51 215.801 439.386 215.727L439.312 215.678C439.091 215.527 438.885 215.356 438.696 215.167C438.576 215.048 438.471 214.916 438.382 214.773C438.218 214.55 438.095 214.299 438.018 214.034C437.51 213.928 436.985 213.942 436.484 214.077C435.812 214.262 435.134 214.656 434.469 214.791C434.133 214.875 433.779 214.861 433.452 214.748C432.49 214.403 432.151 213.233 431.948 212.23C431.911 212.039 431.868 211.842 431.837 211.645C431.766 211.266 431.766 210.878 431.837 210.499C432.135 209.639 432.704 208.898 433.458 208.387L435.479 206.694L435.627 206.571C435.627 206.405 435.559 206.239 435.535 206.072C435.464 205.692 435.464 205.301 435.535 204.921C435.833 204.062 436.401 203.323 437.155 202.815L441.63 199.053C442.468 198.351 443.38 197.612 444.47 197.538C446.091 197.428 447.385 198.77 448.599 199.847C450.128 201.202 451.983 202.31 454.023 202.446C454.994 202.49 455.965 202.357 456.888 202.052L457.412 201.879C457.301 201.651 457.19 201.424 457.085 201.196C456.907 200.82 456.728 200.438 456.555 200.057C459.181 199.89 461.566 198.45 463.556 196.726C465.547 195.002 467.254 192.963 469.263 191.27C471.432 189.423 473.921 188.05 476.122 186.271C481.236 182.127 484.632 176.037 490.104 172.386C492.003 171.111 494.196 170.095 495.491 168.199C495.891 167.583 496.193 166.967 496.606 166.352C497.919 164.504 500.168 163.655 502.023 162.374C503.878 161.093 505.492 159.215 507.002 157.411C508.075 156.124 509.153 154.838 510.176 153.514C511.119 151.759 511.914 149.924 512.9 148.194C513.737 146.732 514.713 145.355 515.815 144.081C516.067 143.588 516.326 143.096 516.604 142.615C516.881 142.135 517.084 141.809 517.343 141.384C517.522 141.107 517.707 140.842 517.898 140.571C517.337 139.58 516.801 138.724 516.548 138.348L516.425 138.182C515.881 137.603 515.301 137.06 514.687 136.556C514.043 136.459 513.405 136.323 512.777 136.15C508.973 135.109 505.618 132.846 503.228 129.712C500.839 126.578 499.547 122.745 499.552 118.805C499.549 118.787 499.549 118.768 499.552 118.75C499.554 115.928 500.226 113.147 501.511 110.634C501.77 110.129 502.048 109.643 502.35 109.169C502.068 109.08 501.794 108.969 501.53 108.836C501.08 108.615 500.688 108.293 500.384 107.894C500.133 107.54 499.97 107.13 499.909 106.7C499.805 105.685 499.957 104.66 500.353 103.72C500.521 103.267 500.712 102.823 500.926 102.39C500.943 102.364 500.957 102.338 500.969 102.31C503.724 96.7681 509.597 93.3631 515.464 93.1229C521.793 92.8705 527.955 95.8383 532.947 100.087C534.436 101.308 535.769 102.708 536.916 104.255C539.522 107.876 540.699 112.506 541.044 117.093C541.174 118.512 541.149 119.941 540.971 121.354C540.905 121.858 540.802 122.356 540.662 122.844C540.582 123.134 540.477 123.423 540.367 123.712C540.256 124.002 540.188 124.131 540.089 124.328V124.359C539.997 124.556 539.892 124.741 539.787 124.925L539.732 125.005L539.652 125.135C539.701 125.252 539.756 125.375 539.812 125.492C539.867 125.609 539.917 125.72 539.978 125.831H540.052C541.285 125.929 542.425 126.101 543.682 126.2C544.273 126.228 544.86 126.319 545.432 126.471C546.665 126.84 547.595 127.739 548.631 128.466C551.194 130.276 554.349 131.12 556.87 132.991C560.568 135.75 562.416 140.306 564.66 144.389C567.618 149.856 572.437 154.511 574.563 160.361C575.524 163.016 576.49 165.668 577.459 168.316C579.351 173.506 581.243 178.722 583.813 183.617C587.387 190.427 592.225 196.547 595.09 203.702C595.375 204.419 595.909 205.009 596.594 205.364C600.499 210.873 603.97 216.677 606.978 222.722C608.562 225.917 610.059 229.236 610.521 232.777C610.882 235.929 610.62 239.121 609.751 242.173C609.26 243.985 608.657 245.766 607.946 247.505C607.668 248.114 607.462 248.752 607.329 249.407C607.329 249.475 607.329 249.543 607.329 249.611C607.206 250.793 607.656 251.963 607.779 253.145C607.882 254.097 607.775 255.059 607.465 255.965C607.416 256.107 607.36 256.248 607.305 256.39C606.922 257.11 606.599 257.859 606.337 258.631C606.315 258.724 606.298 258.819 606.288 258.914C606.084 260.25 606.614 261.599 606.904 262.935C607.989 267.762 607.791 272.787 607.52 277.713C607.379 280.175 609.369 282.152 611.033 283.968C614.114 287.373 616.524 291.357 618.847 295.322C620.115 297.335 621.182 299.468 622.033 301.689C622.914 304.226 623.266 306.91 623.753 309.54C625.324 317.667 630.458 324.847 631.85 332.993C632.496 336.723 634.143 340.209 636.614 343.078C637.359 343.847 638.045 344.67 638.666 345.541C639.095 346.235 639.437 346.98 639.683 347.758C640.289 349.569 640.575 351.471 640.527 353.379C640.429 354.293 640.482 355.216 640.681 356.113C641.26 358.004 643.331 359.044 644.188 360.824C645.044 362.603 644.453 364.881 644.804 366.901C645.08 368.529 645.96 369.994 647.269 371.002C646.776 371.433 646.258 371.827 645.728 372.233C646.219 372.614 646.649 373.066 647.004 373.575C647.247 373.916 647.453 374.282 647.62 374.665C648.434 376.556 648.458 378.803 649.124 380.823C649.407 381.66 649.808 382.547 649.562 383.396C649.456 383.64 649.386 383.897 649.352 384.16C649.352 384.714 649.931 385.077 650.153 385.582C650.234 385.836 650.247 386.106 650.191 386.367C650.134 386.627 650.011 386.868 649.833 387.066Z" fill="url(#paint0_linear)"/>
<path d="M519.408 146.932C523.179 145.916 526.538 143.791 529.828 141.692L541.297 134.395C538.185 134.149 535.498 131.932 533.902 129.248C532.306 126.563 531.646 123.441 531.104 120.375C526.174 122.296 521.903 125.553 517.922 128.995C516.345 130.356 512.992 132.413 512.505 134.537C512.019 136.661 515.125 138.385 516.326 139.808C516.739 140.282 520.628 146.593 519.408 146.932Z" fill="#FBBEBE"/>
<path opacity="0.1" d="M519.408 146.932C523.179 145.916 526.538 143.791 529.828 141.692L541.297 134.395C538.185 134.149 535.498 131.932 533.902 129.248C532.306 126.563 531.646 123.441 531.104 120.375C526.174 122.296 521.903 125.553 517.922 128.995C516.345 130.356 512.992 132.413 512.505 134.537C512.019 136.661 515.125 138.385 516.326 139.808C516.739 140.282 520.628 146.593 519.408 146.932Z" fill="black"/>
<path d="M456.74 207.199C454.719 208.234 452.568 209.293 450.306 209.145C448.273 209.016 446.418 207.913 444.889 206.565C443.657 205.494 442.387 204.157 440.767 204.268C439.682 204.342 438.77 205.075 437.932 205.771L433.464 209.508C432.712 210.013 432.144 210.747 431.843 211.602C431.755 212.181 431.791 212.773 431.948 213.338C432.151 214.335 432.49 215.499 433.452 215.838C434.413 216.176 435.461 215.45 436.478 215.173C437.099 215.014 437.751 215.026 438.366 215.207C438.981 215.388 439.536 215.731 439.972 216.201C440.335 216.558 440.554 217.036 440.588 217.543C440.588 218.658 439.355 219.391 438.222 219.446C437.088 219.501 436.003 219.132 434.881 219.2C434.814 219.191 434.745 219.196 434.679 219.215C434.614 219.233 434.552 219.264 434.499 219.307C434.445 219.349 434.401 219.402 434.368 219.462C434.336 219.522 434.315 219.587 434.308 219.655C434.239 220.044 434.268 220.444 434.394 220.819C434.52 221.193 434.739 221.53 435.029 221.798C435.615 222.332 436.297 222.75 437.038 223.03C437.9 223.455 438.831 223.726 439.787 223.83C441.679 223.953 443.417 222.906 445.21 222.297C447.626 221.484 450.226 221.459 452.778 221.466C455.329 221.472 457.917 221.509 460.364 220.794C462.81 220.08 465.134 218.498 466.089 216.14C466.202 215.92 466.238 215.668 466.194 215.425C466.098 215.166 465.915 214.948 465.676 214.81C462.237 212.267 460.844 209.176 456.974 207.347L456.74 207.199Z" fill="#FBBEBE"/>
<path opacity="0.1" d="M456.74 207.199C454.719 208.234 452.568 209.293 450.306 209.145C448.273 209.016 446.418 207.913 444.889 206.565C443.657 205.494 442.387 204.157 440.767 204.268C439.682 204.342 438.77 205.075 437.932 205.771L433.464 209.508C432.712 210.013 432.144 210.747 431.843 211.602C431.755 212.181 431.791 212.773 431.948 213.338C432.151 214.335 432.49 215.499 433.452 215.838C434.413 216.176 435.461 215.45 436.478 215.173C437.099 215.014 437.751 215.026 438.366 215.207C438.981 215.388 439.536 215.731 439.972 216.201C440.335 216.558 440.554 217.036 440.588 217.543C440.588 218.658 439.355 219.391 438.222 219.446C437.088 219.501 436.003 219.132 434.881 219.2C434.814 219.191 434.745 219.196 434.679 219.215C434.614 219.233 434.552 219.264 434.499 219.307C434.445 219.349 434.401 219.402 434.368 219.462C434.336 219.522 434.315 219.587 434.308 219.655C434.239 220.044 434.268 220.444 434.394 220.819C434.52 221.193 434.739 221.53 435.029 221.798C435.615 222.332 436.297 222.75 437.038 223.03C437.9 223.455 438.831 223.726 439.787 223.83C441.679 223.953 443.417 222.906 445.21 222.297C447.626 221.484 450.226 221.459 452.778 221.466C455.329 221.472 457.917 221.509 460.364 220.794C462.81 220.08 465.134 218.498 466.089 216.14C466.202 215.92 466.238 215.668 466.194 215.425C466.098 215.166 465.915 214.948 465.676 214.81C462.237 212.267 460.844 209.176 456.974 207.347L456.74 207.199Z" fill="black"/>
<path d="M528.904 141.532C527.948 140.915 526.863 140.526 525.732 140.395C524.602 140.263 523.456 140.393 522.384 140.774C520.237 141.547 518.31 142.83 516.77 144.512C515.232 146.079 513.9 147.835 512.807 149.739C511.76 151.586 510.959 153.52 509.911 155.361C508.062 158.655 505.646 161.561 503.218 164.443C501.709 166.235 500.18 168.051 498.245 169.369C496.31 170.686 494.147 171.493 492.834 173.322C492.422 173.9 492.126 174.553 491.719 175.138C490.431 177.022 488.243 178.032 486.339 179.294C480.879 182.927 477.483 188.974 472.381 193.093C470.181 194.866 467.697 196.258 465.534 198.068C463.519 199.749 461.837 201.762 459.828 203.486C457.819 205.21 455.458 206.633 452.839 206.793C454.589 210.69 456.679 214.514 459.68 217.55C462.681 220.585 467.18 222.525 471.278 221.336C472.732 220.918 474.156 220.031 474.71 218.627C474.885 217.906 475.128 217.202 475.437 216.527C475.849 215.986 476.383 215.549 476.997 215.253C493.448 205.658 509.129 194.803 523.9 182.785C527.863 179.559 531.794 176.671 535.862 173.55C537.32 172.516 538.668 171.336 539.886 170.028C541.582 168.004 542.642 165.524 542.931 162.9C543.221 160.276 542.727 157.625 541.513 155.281C540.422 153.487 539.172 151.795 537.778 150.226C535.242 146.927 532.255 144 528.904 141.532Z" fill="#00956A"/>
<path opacity="0.1" d="M528.904 141.532C527.948 140.915 526.863 140.526 525.732 140.395C524.602 140.263 523.456 140.393 522.384 140.774C520.237 141.547 518.31 142.83 516.77 144.512C515.232 146.079 513.9 147.835 512.807 149.739C511.76 151.586 510.959 153.52 509.911 155.361C508.062 158.655 505.646 161.561 503.218 164.443C501.709 166.235 500.18 168.051 498.245 169.369C496.31 170.686 494.147 171.493 492.834 173.322C492.422 173.9 492.126 174.553 491.719 175.138C490.431 177.022 488.243 178.032 486.339 179.294C480.879 182.927 477.483 188.974 472.381 193.093C470.181 194.866 467.697 196.258 465.534 198.068C463.519 199.749 461.837 201.762 459.828 203.486C457.819 205.21 455.458 206.633 452.839 206.793C454.589 210.69 456.679 214.514 459.68 217.55C462.681 220.585 467.18 222.525 471.278 221.336C472.732 220.918 474.156 220.031 474.71 218.627C474.885 217.906 475.128 217.202 475.437 216.527C475.849 215.986 476.383 215.549 476.997 215.253C493.448 205.658 509.129 194.803 523.9 182.785C527.863 179.559 531.794 176.671 535.862 173.55C537.32 172.516 538.668 171.336 539.886 170.028C541.582 168.004 542.642 165.524 542.931 162.9C543.221 160.276 542.727 157.625 541.513 155.281C540.422 153.487 539.172 151.795 537.778 150.226C535.242 146.927 532.255 144 528.904 141.532Z" fill="black"/>
<path d="M502.423 369.949C501.345 370.564 500.02 370.909 499.262 371.907C499.016 372.227 498.849 372.603 498.584 372.91C497.765 373.871 496.31 373.914 495.17 374.462C494.258 374.893 493.519 375.694 492.551 375.946C491.972 376.083 491.375 376.129 490.782 376.081L484.792 375.903C482.894 375.847 480.67 375.946 479.566 377.491C479.208 378.058 478.953 378.683 478.815 379.339C478.352 381.106 477.976 383.107 478.944 384.659C480.103 386.506 482.642 386.881 484.829 387.004C493.281 387.472 501.755 387.307 510.182 386.512C511.322 386.366 512.473 386.319 513.621 386.37C514.533 386.444 515.427 386.647 516.326 386.801C520.868 387.571 525.515 387.121 530.1 386.666C530.874 386.629 531.638 386.466 532.361 386.186C532.721 386.039 533.04 385.807 533.29 385.51C533.54 385.213 533.714 384.859 533.797 384.48C533.988 383.212 532.799 382.134 532.669 380.859C532.577 379.961 533.008 378.957 532.515 378.193C532.331 377.968 532.124 377.762 531.899 377.578C531.073 376.722 530.833 375.472 530.63 374.302L529.551 367.978C529.521 367.533 529.338 367.111 529.033 366.784C528.807 366.621 528.545 366.513 528.269 366.47C523.573 365.411 518.76 366.378 514.095 366.969C511.695 367.32 509.266 367.442 506.842 367.332C505.794 367.264 505.388 367.141 504.605 367.824C503.822 368.508 503.403 369.376 502.423 369.949Z" fill="#3F3D56"/>
<path d="M615.821 377.559C614.997 378.02 614.114 378.365 613.196 378.587C610.776 379.293 608.36 380.03 605.949 380.798C605.307 380.957 604.705 381.246 604.18 381.648C603.342 382.387 603.126 383.593 603.065 384.726C602.985 385.35 603.059 385.985 603.28 386.573C603.569 387.126 603.993 387.596 604.513 387.94C607.274 390.028 610.879 390.674 614.342 390.674C617.806 390.674 621.244 390.089 624.708 389.997C628.892 389.886 633.187 390.477 637.211 389.307C637.979 389.024 638.778 388.829 639.59 388.729C640.13 388.72 640.67 388.755 641.205 388.833C643.363 389.046 645.542 388.848 647.626 388.248C648.253 388.109 648.837 387.82 649.327 387.405C649.57 387.195 649.743 386.917 649.824 386.607C649.906 386.297 649.891 385.97 649.783 385.668C649.561 385.17 648.994 384.806 648.988 384.258C649.017 383.995 649.086 383.738 649.192 383.495C649.444 382.651 649.037 381.771 648.754 380.94C647.959 378.563 648.088 375.829 646.665 373.766C645.241 371.704 642.628 370.854 640.145 370.528C638.126 370.243 636.074 370.301 634.075 370.7C631.825 371.18 629.724 372.184 627.518 372.824C624.958 373.56 622.282 373.813 619.63 373.569C617.867 373.422 618.471 373.699 617.873 375.176C617.449 376.162 616.733 376.993 615.821 377.559Z" fill="#3F3D56"/>
<path d="M517.349 138.391C527.219 138.391 535.221 130.397 535.221 120.535C535.221 110.674 527.219 102.679 517.349 102.679C507.479 102.679 499.478 110.674 499.478 120.535C499.478 130.397 507.479 138.391 517.349 138.391Z" fill="#FBBEBE"/>
<path d="M646.911 371.174C641.365 375.934 633.878 378.015 626.575 378.089C623.494 378.119 620.295 377.787 617.67 376.192C617.485 375.182 617.411 374.093 617.226 373.083C614.04 372.418 611.569 369.826 610.028 366.956C608.488 364.087 607.705 360.898 606.559 357.856C604.809 353.226 602.245 348.959 599.681 344.722C597.327 340.819 594.967 336.903 592.286 333.214C590.511 330.751 588.589 328.436 586.832 325.979C581.857 319.141 578.286 311.385 576.325 303.161C576.025 301.583 575.599 300.033 575.05 298.524C573.99 295.95 572.048 293.857 570.551 291.511C568.936 288.979 567.829 286.158 567.291 283.205C566.989 281.53 566.471 279.72 564.789 279.547C561.251 286.413 557.646 293.389 552.297 298.974C551.457 299.78 550.687 300.658 549.999 301.597C549.446 302.509 548.952 303.455 548.52 304.429C547.69 306.176 546.587 307.781 545.253 309.182C544.135 310.377 542.661 311.181 541.051 311.473C542.239 317.389 541.531 323.529 539.029 329.021C538.284 330.647 537.39 332.198 536.687 333.842C533.816 340.615 534.481 348.257 534.179 355.602C534.153 357.142 533.971 358.674 533.637 360.177C532.891 363.182 531.351 366.378 532.096 369.382C524.368 372.332 515.784 372.147 507.6 370.903C505.999 370.757 504.445 370.285 503.034 369.518C501.873 368.697 500.86 367.685 500.038 366.525C499.722 366.187 499.488 365.781 499.354 365.337C499.034 363.933 500.587 362.874 501.308 361.643C502.029 360.411 502.158 358.459 501.166 357.449C501.659 349.39 503.89 341.521 504.383 333.436C504.58 330.234 504.5 327.02 504.648 323.812C504.796 320.604 505.141 317.482 505.499 314.33C506.312 307.132 508.284 300.076 508.007 292.841C507.922 290.614 508.435 288.406 509.492 286.444C510.383 284.953 511.393 283.536 512.512 282.207C516.295 277.325 520.843 272.43 522.193 266.402C522.889 263.292 524.43 260.447 525.958 257.652C526.864 255.983 527.807 254.278 529.249 253.052C530.034 252.51 530.762 251.891 531.425 251.205C532.435 249.906 532.472 248.127 533.07 246.575C533.378 245.775 533.853 245.036 534.081 244.211C534.269 243.299 534.362 242.371 534.358 241.44C534.555 238.46 535.701 235.578 536.909 232.85C534.069 231.207 531.561 229.048 529.514 226.484C528.827 225.651 528.228 224.749 527.727 223.793C526.458 221.293 526.168 218.442 525.57 215.702C524.147 209.163 520.874 203.012 520.418 196.332C520.283 194.293 520.418 192.188 519.709 190.26C519.382 189.445 518.999 188.653 518.563 187.89C518.134 187.14 517.806 186.337 517.59 185.501C517.195 183.684 517.737 181.806 517.59 179.959C517.442 178.328 516.745 176.801 516.4 175.206C516.048 173.131 515.988 171.017 516.221 168.925C516.376 166.462 516.912 163.92 516.702 161.487C516.362 157.463 516.876 153.412 518.208 149.599C519.541 145.786 521.663 142.297 524.436 139.358L524.578 139.216C525.755 137.985 527.043 136.895 528.103 135.59C529.545 133.841 530.568 131.785 532.09 130.085C532.756 129.328 533.507 128.651 534.167 127.887C534.772 127.086 535.442 126.337 536.17 125.646C536.538 125.304 536.984 125.057 537.47 124.928C537.955 124.798 538.465 124.789 538.955 124.901C539.079 125.819 539.367 126.708 539.806 127.524C541.087 127.622 542.228 127.801 543.503 127.899C544.095 127.927 544.681 128.018 545.253 128.17C546.455 128.534 547.416 129.402 548.446 130.147C551.009 131.951 554.158 132.788 556.679 134.648C560.376 137.388 562.225 141.913 564.456 145.971C567.408 151.408 572.221 156.032 574.316 161.845L577.206 169.75C579.098 174.91 580.99 180.089 583.554 184.953C587.122 191.726 591.954 197.828 594.819 204.915C595.105 205.626 595.637 206.211 596.317 206.565C600.218 212.033 603.686 217.797 606.688 223.805C608.272 226.983 609.77 230.283 610.226 233.799C610.897 238.768 609.542 243.792 607.656 248.435C607.351 249.099 607.143 249.804 607.039 250.528C606.916 251.704 607.366 252.862 607.489 254.038C607.608 255.136 607.445 256.246 607.015 257.264C606.632 257.979 606.308 258.725 606.047 259.493C605.715 260.909 606.306 262.35 606.627 263.766C607.711 268.563 607.514 273.532 607.243 278.445C607.101 280.908 609.092 282.86 610.749 284.664C613.831 288.044 616.234 291.997 618.557 295.944C619.82 297.946 620.886 300.066 621.737 302.274C622.619 304.792 622.97 307.458 623.457 310.075C625.022 318.147 630.149 325.284 631.542 333.381C632.187 337.09 633.832 340.553 636.299 343.398C637.043 344.168 637.729 344.991 638.352 345.861C638.777 346.552 639.117 347.292 639.362 348.066C639.968 349.864 640.254 351.754 640.207 353.65C640.109 354.558 640.161 355.475 640.361 356.366C640.94 358.244 643.011 359.278 643.861 361.045C644.711 362.812 644.126 365.078 644.477 367.086C644.743 368.707 645.612 370.167 646.911 371.174Z" fill="#00956A"/>
<path d="M460.438 201.658C458.416 202.692 456.266 203.751 454.004 203.603C451.97 203.474 450.115 202.372 448.587 201.023C447.355 199.952 446.085 198.616 444.464 198.727C443.38 198.801 442.468 199.533 441.63 200.229L437.162 203.967C436.41 204.472 435.841 205.206 435.541 206.06C435.453 206.64 435.488 207.232 435.646 207.796C435.849 208.794 436.188 209.958 437.149 210.296C438.111 210.635 439.158 209.908 440.175 209.631C440.796 209.473 441.449 209.484 442.064 209.665C442.679 209.846 443.233 210.19 443.669 210.66C444.033 211.016 444.252 211.494 444.286 212.002C444.286 213.116 443.053 213.849 441.919 213.904C440.785 213.96 439.701 213.59 438.579 213.658C438.511 213.65 438.443 213.655 438.377 213.673C438.311 213.691 438.25 213.723 438.196 213.765C438.143 213.808 438.099 213.86 438.066 213.92C438.033 213.98 438.013 214.046 438.006 214.114C437.936 214.503 437.966 214.903 438.092 215.277C438.218 215.652 438.436 215.989 438.727 216.257C439.312 216.79 439.994 217.208 440.736 217.488C441.598 217.914 442.528 218.185 443.484 218.288C445.376 218.412 447.114 217.365 448.908 216.755C451.323 215.942 453.924 215.918 456.475 215.924C459.026 215.93 461.615 215.967 464.061 215.253C466.508 214.539 468.831 212.956 469.786 210.598C469.899 210.378 469.936 210.127 469.891 209.884C469.796 209.624 469.613 209.406 469.374 209.268C465.935 206.725 464.542 203.634 460.672 201.805L460.438 201.658Z" fill="#FBBEBE"/>
<path d="M508.654 109.563C507.588 109.735 506.682 110.456 505.671 110.856C504.993 111.119 504.266 111.236 503.54 111.197C502.813 111.159 502.103 110.967 501.456 110.634C501.005 110.415 500.61 110.095 500.304 109.698C499.478 108.553 499.767 106.891 500.273 105.548C502.664 99.2002 509.048 95.2718 515.371 95.0194C521.694 94.7669 527.844 97.7163 532.83 101.934C534.312 103.151 535.643 104.542 536.792 106.078C539.393 109.68 540.57 114.279 540.915 118.836C541.121 120.748 540.994 122.681 540.539 124.55C540.32 125.458 539.92 126.312 539.363 127.063C538.806 127.813 538.104 128.443 537.297 128.915C535.535 129.814 533.421 129.531 531.64 128.669C529.859 127.807 528.331 126.446 526.803 125.147C526.11 124.48 525.291 123.959 524.393 123.614C523.945 123.455 523.461 123.428 522.999 123.537C522.536 123.646 522.115 123.887 521.786 124.23C520.96 125.221 521.17 126.846 520.418 127.924C519.666 129.001 518.101 129.155 516.782 129.155C515.463 129.155 514.126 129.045 513.337 127.998C512.616 127.05 512.721 125.664 512.992 124.47C513.263 123.275 513.726 122.093 513.609 120.868C513.356 118.405 511.199 116.89 510.527 114.624C510.09 113.14 511.051 112.512 510.952 111.17C510.878 109.988 509.609 109.409 508.654 109.563Z" fill="#3F3D56"/>
<path opacity="0.1" d="M564.801 279.393V279.547C561.264 286.413 557.659 293.389 552.31 298.974C551.469 299.78 550.7 300.658 550.011 301.597C549.459 302.509 548.965 303.455 548.532 304.429C547.702 306.176 546.6 307.781 545.266 309.182L540.804 311.411L554.978 237.524L564.801 279.393Z" fill="black"/>
<path opacity="0.1" d="M544.2 167.565C542.982 168.873 541.634 170.053 540.175 171.087C536.108 174.165 532.164 177.071 528.214 180.323C525.03 182.913 521.801 185.45 518.526 187.933C518.097 187.183 517.769 186.38 517.553 185.544C517.158 183.728 517.701 181.85 517.553 180.002C517.405 178.371 516.708 176.844 516.363 175.249C516.011 173.174 515.951 171.06 516.185 168.968C516.339 166.506 516.875 163.963 516.665 161.53C516.324 157.496 516.84 153.436 518.179 149.615C519.519 145.794 521.651 142.298 524.436 139.358L524.578 139.216C525.241 138.831 525.944 138.517 526.673 138.281C527.748 137.904 528.895 137.779 530.025 137.916C531.156 138.053 532.24 138.447 533.193 139.069C536.544 141.537 539.531 144.464 542.067 147.763C543.461 149.332 544.711 151.024 545.802 152.818C547.02 155.16 547.517 157.809 547.232 160.433C546.947 163.057 545.892 165.538 544.2 167.565Z" fill="black"/>
<path d="M532.602 135.99C531.645 135.373 530.56 134.984 529.43 134.853C528.299 134.722 527.154 134.852 526.082 135.233C523.935 136.005 522.008 137.288 520.467 138.97C518.929 140.537 517.598 142.294 516.505 144.198C515.457 146.045 514.656 147.978 513.609 149.819C511.76 153.113 509.344 156.02 506.916 158.901C505.406 160.693 503.878 162.509 501.943 163.827C500.008 165.145 497.845 165.951 496.532 167.78C496.119 168.359 495.823 169.012 495.417 169.597C494.129 171.481 491.941 172.49 490.037 173.753C484.577 177.386 481.181 183.432 476.078 187.551C473.878 189.325 471.395 190.716 469.232 192.526C467.217 194.207 465.534 196.221 463.525 197.945C461.516 199.669 459.156 201.091 456.537 201.251C458.287 205.149 460.376 208.972 463.377 212.008C466.378 215.044 470.877 216.983 474.975 215.795C476.43 215.376 477.853 214.489 478.408 213.086C478.582 212.364 478.826 211.661 479.135 210.986C479.547 210.444 480.081 210.007 480.694 209.711C497.145 200.117 512.827 189.262 527.598 177.244C531.56 174.017 535.492 171.13 539.559 168.008C541.018 166.975 542.366 165.794 543.583 164.486C545.28 162.462 546.339 159.982 546.629 157.358C546.918 154.735 546.425 152.084 545.21 149.739C544.12 147.946 542.87 146.254 541.476 144.684C538.94 141.385 535.952 138.459 532.602 135.99Z" fill="#00956A"/>
<g opacity="0.1">
<path opacity="0.1" d="M518.015 126.674C516.782 126.674 515.359 126.563 514.57 125.516C513.855 124.568 513.954 123.183 514.225 121.988C514.496 120.794 514.958 119.612 514.841 118.386C514.588 115.923 512.432 114.409 511.76 112.143C511.322 110.659 512.284 110.031 512.185 108.689C512.099 107.525 510.835 106.946 509.88 107.1C508.814 107.272 507.908 107.993 506.897 108.393C506.219 108.656 505.493 108.773 504.766 108.735C504.039 108.696 503.329 108.504 502.682 108.171C502.231 107.952 501.837 107.632 501.53 107.235C500.704 106.09 500.994 104.428 501.499 103.085C501.499 103.036 501.542 102.993 501.561 102.944C501.045 103.768 500.612 104.64 500.267 105.548C499.761 106.891 499.472 108.553 500.297 109.698C500.604 110.095 500.999 110.415 501.45 110.634C502.097 110.967 502.807 111.159 503.534 111.197C504.26 111.236 504.987 111.119 505.665 110.856C506.676 110.456 507.582 109.735 508.648 109.563C509.603 109.409 510.866 109.988 510.952 111.152C511.051 112.494 510.09 113.122 510.527 114.606C511.187 116.872 513.344 118.411 513.609 120.849C513.732 122.081 513.282 123.263 512.992 124.451C512.703 125.64 512.623 127.031 513.337 127.979C514.126 129.026 515.537 129.125 516.782 129.137C518.027 129.149 519.629 129.063 520.418 127.905C520.759 127.324 520.983 126.682 521.078 126.015C520.239 126.612 519.069 126.686 518.015 126.674Z" fill="black"/>
<path opacity="0.1" d="M538.53 126.452C536.768 127.351 534.654 127.068 532.873 126.206C531.092 125.344 529.564 123.983 528.035 122.684C527.343 122.017 526.523 121.496 525.626 121.151C525.178 120.992 524.694 120.965 524.231 121.074C523.769 121.183 523.348 121.424 523.019 121.767C522.6 122.385 522.336 123.094 522.249 123.836C522.569 123.647 522.926 123.529 523.296 123.49C523.666 123.45 524.04 123.491 524.393 123.608C525.291 123.952 526.11 124.474 526.803 125.141C528.331 126.44 529.884 127.807 531.64 128.663C533.397 129.519 535.535 129.808 537.298 128.909C538.856 127.998 539.992 126.509 540.459 124.765C539.953 125.467 539.293 126.044 538.53 126.452Z" fill="black"/>
</g>
<path d="M385.162 391.148C395.372 391.148 403.649 382.878 403.649 372.676C403.649 362.475 395.372 354.205 385.162 354.205C374.951 354.205 366.674 362.475 366.674 372.676C366.674 382.878 374.951 391.148 385.162 391.148Z" fill="#3F3D56"/>
<path opacity="0.1" d="M385.162 391.148C395.372 391.148 403.649 382.878 403.649 372.676C403.649 362.475 395.372 354.205 385.162 354.205C374.951 354.205 366.674 362.475 366.674 372.676C366.674 382.878 374.951 391.148 385.162 391.148Z" fill="black"/>
<path d="M385.162 384.375C391.628 384.375 396.871 379.138 396.871 372.676C396.871 366.215 391.628 360.978 385.162 360.978C378.695 360.978 373.453 366.215 373.453 372.676C373.453 379.138 378.695 384.375 385.162 384.375Z" fill="#65617D"/>
<path opacity="0.1" d="M385.162 384.375C391.628 384.375 396.871 379.138 396.871 372.676C396.871 366.215 391.628 360.978 385.162 360.978C378.695 360.978 373.453 366.215 373.453 372.676C373.453 379.138 378.695 384.375 385.162 384.375Z" fill="black"/>
<path d="M370.988 343.737L383.116 371.137C383.296 371.548 383.591 371.898 383.964 372.147C384.338 372.397 384.775 372.534 385.224 372.543C385.672 372.552 386.115 372.432 386.498 372.199C386.881 371.965 387.189 371.626 387.386 371.223L401.801 341.89L370.988 343.737Z" fill="#3F3D56"/>
<path opacity="0.1" d="M370.988 343.737L383.116 371.137C383.296 371.548 383.591 371.898 383.964 372.147C384.338 372.397 384.775 372.534 385.224 372.543C385.672 372.552 386.115 372.432 386.498 372.199C386.881 371.965 387.189 371.626 387.386 371.223L401.801 341.89L370.988 343.737Z" fill="black"/>
<path d="M269.921 391.148C280.132 391.148 288.409 382.878 288.409 372.676C288.409 362.475 280.132 354.205 269.921 354.205C259.711 354.205 251.434 362.475 251.434 372.676C251.434 382.878 259.711 391.148 269.921 391.148Z" fill="#3F3D56"/>
<path opacity="0.1" d="M269.921 391.148C280.132 391.148 288.409 382.878 288.409 372.676C288.409 362.475 280.132 354.205 269.921 354.205C259.711 354.205 251.434 362.475 251.434 372.676C251.434 382.878 259.711 391.148 269.921 391.148Z" fill="black"/>
<path d="M269.921 384.375C276.388 384.375 281.63 379.138 281.63 372.676C281.63 366.215 276.388 360.978 269.921 360.978C263.455 360.978 258.212 366.215 258.212 372.676C258.212 379.138 263.455 384.375 269.921 384.375Z" fill="#65617D"/>
<path opacity="0.1" d="M269.921 384.375C276.388 384.375 281.63 379.138 281.63 372.676C281.63 366.215 276.388 360.978 269.921 360.978C263.455 360.978 258.212 366.215 258.212 372.676C258.212 379.138 263.455 384.375 269.921 384.375Z" fill="black"/>
<path d="M255.747 343.737L267.875 371.137C268.056 371.548 268.35 371.898 268.724 372.147C269.097 372.397 269.534 372.534 269.983 372.543C270.432 372.552 270.874 372.432 271.257 372.199C271.641 371.965 271.949 371.626 272.146 371.223L286.56 341.89L255.747 343.737Z" fill="#3F3D56"/>
<path opacity="0.1" d="M255.747 343.737L267.875 371.137C268.056 371.548 268.35 371.898 268.724 372.147C269.097 372.397 269.534 372.534 269.983 372.543C270.432 372.552 270.874 372.432 271.257 372.199C271.641 371.965 271.949 371.626 272.146 371.223L286.56 341.89L255.747 343.737Z" fill="black"/>
<path d="M445.161 211.817C445.11 211.351 444.943 210.904 444.675 210.519C444.407 210.134 444.046 209.822 443.626 209.613C443.273 209.462 442.892 209.384 442.508 209.384C442.123 209.383 441.743 209.46 441.388 209.609C441.034 209.758 440.714 209.977 440.446 210.253C440.178 210.529 439.969 210.855 439.83 211.214L429.224 237.524L426.143 355.744H431.073L432.922 237.776L444.902 213.603C445.174 213.05 445.265 212.425 445.161 211.817Z" fill="#3F3D56"/>
<path d="M227.091 346.508L243.73 336.041L423.37 334.501L427.992 346.508H227.091Z" fill="#00956A"/>
<path d="M227.091 357.591V346.508L431.246 344.538L431.048 352.05H230.789V357.591H227.091Z" fill="#3F3D56"/>
<path d="M252.974 397.613C263.185 397.613 271.462 389.343 271.462 379.142C271.462 368.94 263.185 360.67 252.974 360.67C242.764 360.67 234.486 368.94 234.486 379.142C234.486 389.343 242.764 397.613 252.974 397.613Z" fill="#3F3D56"/>
<path d="M252.974 390.84C259.441 390.84 264.683 385.603 264.683 379.142C264.683 372.681 259.441 367.443 252.974 367.443C246.508 367.443 241.265 372.681 241.265 379.142C241.265 385.603 246.508 390.84 252.974 390.84Z" fill="#65617D"/>
<path d="M238.8 350.202L250.928 377.602C251.109 378.013 251.403 378.364 251.777 378.613C252.15 378.862 252.587 378.999 253.036 379.008C253.485 379.017 253.927 378.898 254.31 378.664C254.694 378.43 255.002 378.092 255.199 377.689L269.613 348.355L238.8 350.202Z" fill="#3F3D56"/>
<path d="M396.562 397.613C406.773 397.613 415.05 389.343 415.05 379.142C415.05 368.94 406.773 360.67 396.562 360.67C386.352 360.67 378.075 368.94 378.075 379.142C378.075 389.343 386.352 397.613 396.562 397.613Z" fill="#3F3D56"/>
<path d="M396.562 390.84C403.029 390.84 408.271 385.603 408.271 379.142C408.271 372.681 403.029 367.443 396.562 367.443C390.096 367.443 384.854 372.681 384.854 379.142C384.854 385.603 390.096 390.84 396.562 390.84Z" fill="#65617D"/>
<path d="M382.389 350.202L394.517 377.602C394.697 378.013 394.992 378.364 395.365 378.613C395.738 378.862 396.175 378.999 396.624 379.008C397.073 379.017 397.515 378.898 397.899 378.664C398.282 378.43 398.59 378.092 398.787 377.689L413.202 348.355L382.389 350.202Z" fill="#3F3D56"/>
<path d="M327.233 298.173H250.201V340.659H327.233V298.173Z" fill="#65617D"/>
<path opacity="0.1" d="M300.734 305.562H277.316V310.488H300.734V305.562Z" fill="black"/>
<path opacity="0.1" d="M297.807 306.178H280.244V309.872H297.807V306.178Z" fill="black"/>
<path d="M405.498 298.173H328.466V340.659H405.498V298.173Z" fill="#65617D"/>
<path opacity="0.1" d="M378.999 305.562H355.581V310.488H378.999V305.562Z" fill="black"/>
<path opacity="0.1" d="M376.072 306.178H358.509V309.872H376.072V306.178Z" fill="black"/>
<path d="M327.233 254.456H250.201V296.942H327.233V254.456Z" fill="#65617D"/>
<path opacity="0.1" d="M300.734 261.845H277.316V266.771H300.734V261.845Z" fill="black"/>
<path opacity="0.1" d="M297.807 262.461H280.244V266.155H297.807V262.461Z" fill="black"/>
<path d="M405.498 254.456H328.466V296.942H405.498V254.456Z" fill="#65617D"/>
<path opacity="0.1" d="M378.999 261.845H355.581V266.771H378.999V261.845Z" fill="black"/>
<path opacity="0.1" d="M376.072 262.461H358.509V266.155H376.072V262.461Z" fill="black"/>
<path d="M327.233 210.124H250.201V252.609H327.233V210.124Z" fill="#65617D"/>
<path opacity="0.1" d="M300.734 217.513H277.316V222.438H300.734V217.513Z" fill="black"/>
<path opacity="0.1" d="M297.807 218.128H280.244V221.823H297.807V218.128Z" fill="black"/>
<path d="M405.498 210.124H328.466V252.609H405.498V210.124Z" fill="#65617D"/>
<path opacity="0.1" d="M378.999 217.513H355.581V222.438H378.999V217.513Z" fill="black"/>
<path opacity="0.1" d="M376.072 218.128H358.509V221.823H376.072V218.128Z" fill="black"/>
<path d="M405.498 165.791H328.466V208.277H405.498V165.791Z" fill="#65617D"/>
<path opacity="0.1" d="M378.999 173.18H355.581V178.106H378.999V173.18Z" fill="black"/>
<path opacity="0.1" d="M376.072 173.796H358.509V177.49H376.072V173.796Z" fill="black"/>
</g>
<defs>
<linearGradient id="paint0_linear" x1="540.97" y1="390.619" x2="540.97" y2="93.1352" gradientUnits="userSpaceOnUse">
<stop stop-color="#808080" stop-opacity="0.25"/>
<stop offset="0.54" stop-color="#808080" stop-opacity="0.12"/>
<stop offset="1" stop-color="#808080" stop-opacity="0.1"/>
</linearGradient>
<clipPath id="clip0">
<rect width="705" height="401" fill="white"/>
</clipPath>
</defs>
</svg>
