<svg width="344" height="168" viewBox="0 0 344 168" fill="none" xmlns="http://www.w3.org/2000/svg">
<path d="M335.175 111.231L242.076 165.448C236.624 168.625 227.709 168.632 222.178 165.448L65.808 75.9048C60.2696 72.7343 60.2099 67.5872 65.6621 64.4101L158.761 10.2263C164.22 7.04915 173.128 7.04251 178.659 10.2263L335.029 99.7698C340.567 102.907 340.634 108.054 335.175 111.231Z" fill="#00E4A3"/>
<path d="M339.466 105.441L246.374 159.625C240.915 162.802 232.001 162.808 226.476 159.625L70.1061 70.0812C64.5677 66.9107 64.5014 61.7636 69.9602 58.5864L163.072 4.39602C168.531 1.21889 177.446 1.21225 182.971 4.39602L339.34 93.9395C344.859 97.1299 344.925 102.264 339.466 105.441Z" fill="#00E4A3"/>
<path d="M336.077 107.417L242.985 161.601C237.526 164.778 228.611 164.785 223.086 161.601L66.7167 72.0577C61.1783 68.8872 61.1186 63.7401 66.5774 60.563L159.67 6.37924C165.128 3.2021 174.043 3.19547 179.568 6.37924L335.938 95.9227C341.496 99.1198 341.536 104.24 336.077 107.417Z" fill="#68E1FD"/>
<path opacity="0.58" d="M336.077 107.411L242.978 161.601C242.283 162.001 241.558 162.344 240.809 162.629C235.384 164.732 227.928 164.387 223.073 161.615L66.7035 72.071C61.1717 68.9071 61.1053 63.76 66.5575 60.5829L109.213 35.7628L159.623 6.39913C165.075 3.222 173.99 3.21536 179.522 6.39913L335.885 95.9426C341.496 99.1198 341.536 104.24 336.077 107.411Z" fill="url(#paint0_linear)"/>
<path opacity="0.58" d="M152.685 10.5911L329.636 110.595L298.263 128.901L122.433 27.7702L152.685 10.5911Z" fill="url(#paint1_linear)"/>
<path opacity="0.58" d="M283.465 137.803L240.809 162.629C235.384 164.732 227.928 164.387 223.073 161.615L66.7035 72.071C61.1717 68.9072 61.1053 63.7601 66.5575 60.5829L109.213 35.7628C114.632 33.6602 122.094 34.0051 126.95 36.7776L283.319 126.315C288.851 129.485 288.917 134.632 283.465 137.803Z" fill="url(#paint2_linear)"/>
<path d="M182.918 47.0121L162.886 58.6594C159.862 60.4238 154.927 60.4238 151.849 58.6594L127.308 44.6044C124.237 42.8467 124.204 39.9614 127.228 38.2302L147.259 26.5697C150.284 24.812 155.219 24.8053 158.297 26.5697L182.838 40.6247C185.909 42.4023 185.942 45.2544 182.918 47.0121Z" fill="#FDB523"/>
<path d="M169.977 54.4143L166.661 56.3246L156.439 50.4612C154.707 51.1227 152.831 51.3149 151 51.0183L150.51 50.9255L150.125 50.7132C149.269 50.2489 141.668 46.1365 139.943 44.8697C138.113 43.5431 139.061 41.5532 139.943 40.3328L131.792 35.6898L135.108 33.7795L145.721 39.8619L144.838 40.7507C143.897 41.739 143.399 42.9528 143.658 43.2446C144.712 44.0207 149.481 46.6804 152.765 48.4647C153.458 48.405 154.122 48.1548 154.682 47.7417L156.307 46.6008L169.977 54.4143Z" fill="#EFA92B"/>
<path d="M176.106 50.8393L179.422 48.929L169.181 43.0656C170.6 41.8319 170.508 40.5782 170.103 39.9216L169.937 39.6364L169.579 39.4175C168.763 38.9267 161.573 34.5755 159.371 33.5872C157.03 32.5392 153.587 33.103 151.511 33.5872L143.359 28.9442L140.043 30.8545L150.655 36.9368L152.201 36.4393C153.912 35.8888 156.008 35.5903 156.519 35.7363C157.845 36.3398 162.488 39.0527 165.626 40.9497C165.579 41.1818 165.361 41.613 164.392 42.064L162.435 43.0125L176.106 50.8393Z" fill="#EFA92B"/>
<path d="M173.599 52.4444L172.902 52.849L137.323 32.4662L138.013 32.0616L173.599 52.4444Z" fill="#EFA92B"/>
<path d="M162.727 58.7722L162.031 59.1701L126.452 38.794L127.149 38.3894L162.727 58.7722Z" fill="#EFA92B"/>
<path d="M184.463 46.1166L183.773 46.5212L148.188 26.1385L148.885 25.7339L184.463 46.1166Z" fill="#EFA92B"/>
<path d="M197.63 63.3705C196.411 63.9844 195.093 64.2643 193.676 64.21C192.264 64.1584 190.935 63.7788 189.689 63.0711C188.327 62.2971 187.709 61.4232 187.835 60.4494C187.971 59.4755 188.835 58.526 190.426 57.6006L191.072 57.2252C192.088 56.6345 193.163 56.2165 194.297 55.9711C195.431 55.7256 196.537 55.6727 197.615 55.8124C198.702 55.952 199.689 56.2733 200.574 56.7764C201.8 57.473 202.461 58.2241 202.557 59.0295C202.654 59.8348 202.17 60.6138 201.106 61.3664L198.917 60.1225C199.545 59.6955 199.847 59.2995 199.821 58.9343C199.804 58.5691 199.46 58.1957 198.789 57.8143C198.059 57.3996 197.251 57.2405 196.363 57.3369C195.486 57.4333 194.495 57.7965 193.392 58.4266L192.594 58.8907C191.452 59.5545 190.791 60.1378 190.609 60.6406C190.432 61.1462 190.718 61.6118 191.467 62.0375C192.144 62.4218 192.799 62.6193 193.435 62.6301C194.08 62.6408 194.749 62.473 195.441 62.1266L197.63 63.3705ZM203.35 66.2198L201.606 65.2288L197.738 67.4774L195.549 66.2335L206.114 60.0909L210.062 62.3342C211.317 63.0474 212.007 63.7592 212.132 64.4697C212.257 65.1801 211.811 65.8306 210.796 66.4213C210.075 66.8403 209.314 67.1006 208.514 67.2022C207.724 67.3037 206.868 67.2564 205.945 67.0602L203.926 70.8765L203.825 70.9356L201.475 69.6004L203.35 66.2198ZM203.369 64.2036L205.135 65.2071C205.685 65.5195 206.248 65.6812 206.826 65.6923C207.408 65.7005 207.943 65.5626 208.432 65.2786C208.93 64.9889 209.179 64.6795 209.177 64.3505C209.18 64.0242 208.887 63.6938 208.299 63.3593L206.54 62.36L203.369 64.2036ZM216.066 72.6274L211.862 70.239L209.032 71.8843L213.966 74.6873L212.217 75.7041L205.094 71.6571L215.659 65.5146L222.768 69.5532L221.004 70.5784L216.086 67.7837L213.568 69.2476L217.771 71.636L216.066 72.6274ZM213.501 76.4338L224.067 70.2913L227.336 72.1489C228.27 72.6797 228.894 73.2761 229.208 73.9382C229.531 74.6003 229.513 75.2738 229.152 75.9588C228.797 76.6409 228.128 77.2675 227.146 77.8384L226.66 78.1211C225.678 78.692 224.6 79.0836 223.427 79.2957C222.259 79.5107 221.095 79.5304 219.934 79.3549C218.774 79.1794 217.727 78.8291 216.793 78.3039L213.501 76.4338ZM224.493 72.5604L217.44 76.6611L218.498 77.2623C219.354 77.7488 220.287 77.9589 221.295 77.8926C222.304 77.8262 223.331 77.4948 224.376 76.8985L224.935 76.5737C226.009 75.9493 226.598 75.3496 226.701 74.7747C226.81 74.1969 226.434 73.6634 225.573 73.1741L224.493 72.5604ZM225.55 83.2797L223.361 82.0358L233.926 75.8932L236.115 77.1372L225.55 83.2797ZM244.168 83.7394L240.913 81.89L232.111 87.0074L229.922 85.7635L238.723 80.6461L235.512 78.8216L237.276 77.7965L245.931 82.7142L244.168 83.7394ZM251.766 94.1292C250.546 94.7431 249.228 95.023 247.811 94.9687C246.399 94.9171 245.07 94.5375 243.825 93.8298C242.462 93.0558 241.844 92.1819 241.971 91.2081C242.106 90.2342 242.97 89.2847 244.562 88.3593L245.208 87.9839C246.223 87.3932 247.298 86.9752 248.432 86.7298C249.566 86.4843 250.672 86.4314 251.75 86.5711C252.837 86.7107 253.824 87.032 254.709 87.5351C255.935 88.2317 256.596 88.9828 256.693 89.7882C256.789 90.5935 256.305 91.3725 255.242 92.1251L253.052 90.8812C253.681 90.4542 253.982 90.0582 253.956 89.693C253.94 89.3278 253.596 88.9544 252.924 88.573C252.195 88.1583 251.386 87.9992 250.499 88.0956C249.621 88.192 248.631 88.5552 247.528 89.1853L246.729 89.6494C245.588 90.3132 244.926 90.8965 244.744 91.3993C244.567 91.9049 244.853 92.3705 245.603 92.7962C246.279 93.1805 246.935 93.378 247.57 93.3888C248.216 93.3995 248.884 93.2317 249.576 92.8853L251.766 94.1292ZM257.86 99.135L254.021 96.9539L251.114 97.8049L248.786 96.4821L263.307 92.587L265.336 93.7397L258.748 102.142L256.42 100.819L257.86 99.135ZM256.376 96.2646L259.032 97.7739L261.651 94.7159L256.376 96.2646ZM267.542 102.692L265.797 101.701L261.93 103.95L259.74 102.706L270.306 96.5635L274.254 98.8068C275.509 99.52 276.199 100.232 276.324 100.942C276.449 101.653 276.003 102.303 274.987 102.894C274.266 103.313 273.506 103.573 272.706 103.675C271.916 103.776 271.059 103.729 270.136 103.533L268.118 107.349L268.016 107.408L265.666 106.073L267.542 102.692ZM267.561 100.676L269.327 101.68C269.877 101.992 270.44 102.154 271.018 102.165C271.6 102.173 272.135 102.035 272.624 101.751C273.122 101.461 273.37 101.152 273.369 100.823C273.372 100.497 273.079 100.166 272.49 99.8319L270.732 98.8326L267.561 100.676ZM269.286 108.13L279.851 101.987L283.121 103.845C284.055 104.376 284.679 104.972 284.993 105.634C285.316 106.296 285.298 106.97 284.937 107.655C284.581 108.337 283.913 108.963 282.931 109.534L282.444 109.817C281.462 110.388 280.385 110.779 279.212 110.992C278.044 111.206 276.879 111.226 275.719 111.051C274.559 110.875 273.511 110.525 272.577 110L269.286 108.13ZM280.277 104.256L273.224 108.357L274.282 108.958C275.139 109.445 276.071 109.655 277.08 109.588C278.089 109.522 279.116 109.191 280.161 108.594L280.719 108.269C281.793 107.645 282.382 107.045 282.486 106.47C282.595 105.893 282.219 105.359 281.357 104.87L280.277 104.256Z" fill="#68E1FD"/>
<path d="M159.689 104.154L83.3387 60.0722C81.6473 59.0972 81.8595 57.4191 83.8096 56.2583C85.7597 55.1307 88.7179 55.0113 90.4093 55.9864L166.76 100.068C168.451 101.043 168.239 102.721 166.282 103.876C164.332 105.003 161.381 105.129 159.689 104.154Z" fill="#68E1FD"/>
<path d="M274.046 107.742L180.981 161.92C175.522 165.097 166.607 165.103 161.082 161.92L4.7062 72.3761C-0.825595 69.2056 -0.891923 64.0585 4.56691 60.8814L97.659 6.6976C103.118 3.52046 112.032 3.51383 117.558 6.6976L273.927 96.2411C279.439 99.4116 279.505 104.559 274.046 107.742Z" fill="#00E4A3"/>
<path d="M274.949 103.922L181.856 158.106C176.398 161.283 167.483 161.283 161.958 158.106L5.58837 68.5622C0.0499416 65.3917 -0.0163859 60.2446 5.44245 57.0675L98.5279 2.8771C103.987 -0.300036 112.901 -0.306669 118.426 2.8771L274.796 92.4206C280.348 95.5977 280.407 100.745 274.949 103.922Z" fill="#68E1FD"/>
<path opacity="0.58" d="M274.955 103.915L181.856 158.099C181.163 158.502 180.437 158.848 179.687 159.134C174.262 161.236 166.8 160.892 161.945 158.119L5.57512 68.5755C0.0433164 65.405 -0.0230117 60.2646 5.43583 57.0874L48.0851 32.2673L98.5279 2.90365C103.987 -0.273485 112.895 -0.280118 118.426 2.90365L274.796 92.4472C280.341 95.5978 280.407 100.738 274.955 103.915Z" fill="url(#paint3_linear)"/>
<path opacity="0.58" d="M222.337 134.307L179.687 159.134C174.262 161.236 166.8 160.892 161.945 158.119L5.57512 68.5755C0.0433164 65.405 -0.0230117 60.2645 5.43583 57.0874L48.0851 32.2673C53.5107 30.1647 60.9661 30.5096 65.8213 33.2821L222.191 122.826C227.723 125.989 227.789 131.137 222.337 134.307Z" fill="url(#paint4_linear)"/>
<path d="M121.789 43.5166L101.765 55.1771C98.7402 56.9348 93.8053 56.9414 90.721 55.1771L66.1795 41.1221C63.1085 39.3578 63.0687 36.4791 66.0999 34.7479L86.1311 23.094C89.1623 21.3297 94.0905 21.3297 97.1748 23.094L121.716 37.149C124.781 38.9001 124.821 41.7588 121.789 43.5166Z" fill="#FDB523"/>
<path d="M108.849 50.9122L105.565 52.8291L95.3309 46.9657C93.5977 47.6232 91.7224 47.8153 89.8919 47.5228L89.3945 47.4233L89.0164 47.2177C88.1541 46.7534 80.5595 42.6411 78.835 41.3742C77.0043 40.0476 77.9462 38.0578 78.835 36.8373L70.6898 32.1943L73.9731 30.2841L84.5856 36.3598L83.73 37.2552C82.7948 38.2501 82.2973 39.4639 82.5494 39.7558C83.604 40.5318 88.373 43.1916 91.6563 44.9758C92.3511 44.9134 93.0159 44.6635 93.5798 44.2528L95.2048 43.112L108.849 50.9122Z" fill="#EFA92B"/>
<path d="M114.984 47.3437L118.267 45.4335L108.02 39.57C109.432 38.3297 109.346 37.0827 108.941 36.426L108.769 36.1408L108.411 35.9219C107.602 35.4311 100.412 31.08 98.2029 30.0917C95.8615 29.0437 92.4257 29.6075 90.343 30.0917L82.1912 25.4487L78.8748 27.3589L89.4873 33.4413L91.0261 32.9372C92.7374 32.3933 94.8334 32.0948 95.3508 32.2407C96.6773 32.8443 101.32 35.5571 104.458 37.4541C104.411 37.6863 104.192 38.1174 103.217 38.5685L101.227 39.517L114.984 47.3437Z" fill="#EFA92B"/>
<path d="M112.47 48.9489L111.78 49.3469L76.1951 28.9708L76.8915 28.5662L112.47 48.9489Z" fill="#EFA92B"/>
<path d="M101.599 55.27L100.909 55.6746L65.3239 35.2985L66.0203 34.8939L101.599 55.27Z" fill="#EFA92B"/>
<path d="M123.341 42.6212L122.645 43.0258L87.0663 22.643L87.7628 22.2384L123.341 42.6212Z" fill="#EFA92B"/>
<path d="M149.499 69.7879C148.692 69.3298 148.278 68.8205 148.256 68.2601C148.237 67.6979 148.611 67.194 149.377 66.7485L149.512 66.6699C150.047 66.3592 150.617 66.1411 151.223 66.0156C151.833 65.8919 152.44 65.874 153.044 65.962C153.652 66.048 154.218 66.2401 154.742 66.5381C155.481 66.9576 155.835 67.4217 155.805 67.9303C155.779 68.4371 155.358 68.9273 154.543 69.4009L153.911 69.7687L150.657 67.9197C150.422 68.1232 150.32 68.3297 150.35 68.5393C150.38 68.7488 150.552 68.9428 150.866 69.1213C151.384 69.4157 151.969 69.5408 152.621 69.4968L152.49 70.4328C152.006 70.4797 151.493 70.4452 150.949 70.3291C150.413 70.213 149.929 70.0326 149.499 69.7879ZM153.477 67.2627C152.998 66.9904 152.397 67.0119 151.676 67.3273L153.327 68.2656L153.453 68.1926C153.72 68.0446 153.855 67.8899 153.857 67.7285C153.863 67.5651 153.736 67.4098 153.477 67.2627ZM158.389 70.3756L160.591 69.9722L162.291 70.9381L158.361 71.6313L157.133 74.0148L155.424 73.0434L156.143 71.6757L153.787 72.1133L152.067 71.1364L156.205 70.406L157.371 68.1425L159.09 69.1194L158.389 70.3756ZM159.319 75.2566L157.677 74.3239L162.903 71.2858L164.545 72.2186L159.319 75.2566ZM164.153 70.4472C164.385 70.3125 164.659 70.2499 164.976 70.2594C165.292 70.269 165.585 70.3501 165.853 70.5028C166.122 70.6555 166.267 70.8228 166.287 71.0045C166.307 71.1863 166.201 71.3446 165.97 71.4794C165.738 71.6141 165.464 71.6767 165.147 71.6672C164.831 71.6576 164.538 71.5765 164.269 71.4238C164.001 71.2711 163.856 71.1038 163.836 70.9221C163.816 70.7403 163.921 70.582 164.153 70.4472ZM162.786 74.1677C163.308 73.8644 163.874 73.6528 164.483 73.5329C165.096 73.411 165.703 73.395 166.304 73.4848C166.905 73.5747 167.463 73.7658 167.978 74.0584C168.765 74.5054 169.142 74.9991 169.109 75.5393C169.079 76.0777 168.648 76.5892 167.814 77.0741L167.756 77.1078C166.941 77.5813 166.066 77.8279 165.129 77.8474C164.2 77.8668 163.346 77.6558 162.569 77.2142C161.821 76.7893 161.443 76.3188 161.434 75.8029C161.428 75.2852 161.789 74.7943 162.516 74.3305L162.786 74.1677ZM164.322 75.1566C163.839 75.4374 163.561 75.6866 163.488 75.9041C163.414 76.1216 163.527 76.315 163.825 76.4842C164.408 76.8154 165.151 76.7254 166.056 76.2142L166.22 76.1188C167.157 75.5741 167.325 75.1306 166.722 74.7884C166.175 74.4775 165.475 74.544 164.621 74.9881L164.322 75.1566ZM170.137 79.7155C170.276 79.635 170.314 79.5291 170.252 79.3976C170.19 79.2661 170 79.0583 169.682 78.7741C169.364 78.4898 169.145 78.2302 169.024 77.9951C168.907 77.7581 168.883 77.5392 168.953 77.3384C169.023 77.1377 169.194 76.9586 169.464 76.8014C169.944 76.5225 170.537 76.4063 171.245 76.4529C171.955 76.4977 172.633 76.7031 173.277 77.0692C173.97 77.4629 174.371 77.8702 174.479 78.2909C174.588 78.7117 174.388 79.0699 173.879 79.3657L172.238 78.4329C172.656 78.1895 172.644 77.9418 172.2 77.6898C172.028 77.5923 171.836 77.5385 171.623 77.5284C171.413 77.5165 171.237 77.5517 171.095 77.634C170.951 77.7183 170.904 77.8271 170.957 77.9604C171.009 78.0938 171.162 78.2656 171.414 78.4759C171.671 78.6881 171.877 78.8847 172.033 79.0658C172.552 79.672 172.463 80.1781 171.764 80.5843C171.287 80.8614 170.686 80.9655 169.959 80.8967C169.235 80.8298 168.535 80.6041 167.858 80.2196C167.408 79.9638 167.087 79.6889 166.895 79.3948C166.703 79.1006 166.647 78.817 166.726 78.5438C166.806 78.2706 166.998 78.045 167.304 77.8672L168.834 78.7365C168.599 78.8806 168.503 79.0295 168.546 79.1834C168.592 79.3353 168.736 79.4803 168.979 79.6183C169.203 79.7452 169.414 79.8138 169.615 79.8239C169.818 79.8359 169.992 79.7998 170.137 79.7155ZM178.47 83.179C177.659 83.6507 176.826 83.923 175.97 83.9959C175.122 84.0688 174.385 83.9277 173.76 83.5726C173.277 83.2985 173.056 82.9711 173.096 82.5904L170.657 84.0084L169.021 83.0784L176.255 78.8723L177.785 79.7416L177.351 80.0499C178.051 80.0038 178.657 80.126 179.169 80.4167C179.816 80.7847 180.082 81.2093 179.965 81.6906C179.851 82.1699 179.378 82.6511 178.548 83.1341L178.47 83.179ZM176.935 82.19C177.862 81.6509 178.054 81.2268 177.51 80.9177C177.121 80.6969 176.724 80.6302 176.317 80.7176L174.26 81.9138C174.113 82.1632 174.23 82.3964 174.612 82.6135C175.134 82.9097 175.85 82.8023 176.761 82.2911L176.935 82.19ZM179.583 86.7702C179.631 86.6753 179.735 86.5551 179.896 86.4095C179.218 86.4574 178.609 86.3277 178.068 86.0205C177.573 85.739 177.3 85.4137 177.249 85.0446C177.202 84.6737 177.404 84.3572 177.855 84.0951C178.422 83.7657 179.06 83.6363 179.771 83.707C180.482 83.7777 181.239 84.0412 182.042 84.4975L182.547 84.7845L182.822 84.6244C183.302 84.3455 183.333 84.0874 182.915 83.8501C182.527 83.6293 182.142 83.6294 181.762 83.8502L180.126 82.9202C180.631 82.6263 181.257 82.51 182.003 82.5713C182.753 82.6344 183.462 82.8563 184.133 83.2372C184.803 83.618 185.17 84.0133 185.233 84.4232C185.297 84.833 185.05 85.2054 184.493 85.5404L182.18 86.8853C181.706 87.1679 181.414 87.4236 181.302 87.6525L181.22 87.7002L179.583 86.7702ZM179.621 85.5701C179.825 85.6861 180.036 85.7565 180.256 85.7813C180.479 85.8081 180.674 85.8062 180.842 85.7757L181.678 85.2899L181.202 85.0194C180.632 84.6956 180.092 84.6816 179.584 84.9774C179.436 85.0635 179.365 85.1622 179.372 85.2735C179.382 85.383 179.465 85.4818 179.621 85.5701ZM186.209 87.9148L190.03 86.6988L191.783 87.6951L183.542 90.0243L183.227 90.101C182.247 90.3212 181.371 90.2123 180.6 89.7744C180.387 89.653 180.194 89.5064 180.022 89.3347L181.186 88.658L181.399 88.7794C181.629 88.9101 181.838 88.9897 182.025 89.0185C182.213 89.051 182.421 89.0342 182.65 88.9681L183.129 88.8404L186.576 84.7366L188.325 85.7301L186.209 87.9148Z" fill="#68E1FD"/>
<path d="M187.773 138.055L34.428 49.5193C32.7366 48.5443 32.9489 46.8661 34.899 45.712C36.849 44.5844 39.8073 44.4651 41.4986 45.4401L194.844 133.975C196.535 134.95 196.323 136.629 194.366 137.783C192.416 138.917 189.464 139.03 187.773 138.055Z" fill="#00956A"/>
<path d="M98.5611 100.659L22.2103 56.5766C20.5189 55.595 20.7312 53.8903 22.6812 52.7628C24.6379 51.6352 27.5896 51.5158 29.2809 52.4908L105.632 96.5727C107.323 97.5478 107.111 99.2259 105.161 100.38C103.204 101.508 100.252 101.634 98.5611 100.659Z" fill="#00956A"/>
<path d="M176.272 145.55L120.973 113.632C119.282 112.651 119.494 110.946 121.451 109.819C123.401 108.691 126.359 108.572 128.051 109.547L183.342 141.471C185.034 142.446 184.821 144.124 182.865 145.278C180.915 146.372 177.956 146.498 176.272 145.55Z" fill="#00956A"/>
<defs>
<linearGradient id="paint0_linear" x1="104.644" y1="138.876" x2="236.32" y2="-92.2941" gradientUnits="userSpaceOnUse">
<stop offset="0.01" stop-color="#005308"/>
<stop offset="0.13" stop-color="#005308" stop-opacity="0.69"/>
<stop offset="0.9375" stop-color="#005308"/>
</linearGradient>
<linearGradient id="paint1_linear" x1="86986.4" y1="16956.2" x2="55679.6" y2="77709" gradientUnits="userSpaceOnUse">
<stop offset="0.01"/>
<stop offset="0.13" stop-opacity="0.69"/>
<stop offset="1" stop-opacity="0"/>
</linearGradient>
<linearGradient id="paint2_linear" x1="407871" y1="-120308" x2="474569" y2="-156411" gradientUnits="userSpaceOnUse">
<stop offset="0.01"/>
<stop offset="0.13" stop-opacity="0.69"/>
<stop offset="1" stop-opacity="0"/>
</linearGradient>
<linearGradient id="paint3_linear" x1="507676" y1="-159658" x2="600213" y2="-206376" gradientUnits="userSpaceOnUse">
<stop offset="0.01" stop-color="#005308"/>
<stop offset="0.13" stop-opacity="0.69"/>
<stop offset="1" stop-opacity="0"/>
</linearGradient>
<linearGradient id="paint4_linear" x1="395229" y1="-126130" x2="461925" y2="-162235" gradientUnits="userSpaceOnUse">
<stop offset="0.01"/>
<stop offset="0.13" stop-opacity="0.69"/>
<stop offset="1" stop-opacity="0"/>
</linearGradient>
</defs>
</svg>
