<svg width="77" height="77" viewBox="0 0 77 77" fill="none" xmlns="http://www.w3.org/2000/svg">
<circle cx="38.5" cy="38.5" r="38.5" fill="#121414"/>
<path d="M33.2662 27.9411C35.8877 25.4 43.6428 26.3529 47.1927 27.147C49.6503 28.7352 52.1079 24.7647 50.4695 22.3824C48.8311 20 39.8199 20 34.9046 20C29.9894 20 25.0742 24.7647 23.4358 29.5294C21.7974 34.2941 25.0742 40.6471 28.351 43.8235C31.6278 47 38.1814 47.7941 41.4583 46.2059C44.7351 44.6176 43.9159 43.0294 43.0967 40.6471C42.2775 38.2647 37.3623 40.6471 33.2662 38.2647C29.1702 35.8824 29.9894 31.1176 33.2662 27.9411Z" fill="#00956A"/>
<path d="M44.7338 48.0589C42.1123 50.6 34.3572 49.6471 30.8073 48.853C28.3497 47.2648 25.8921 51.2353 27.5305 53.6176C29.1689 56 38.1801 56 43.0954 56C48.0106 56 52.9258 51.2353 54.5642 46.4706C56.2026 41.7059 52.9258 35.3529 49.649 32.1765C46.3722 29 39.8186 28.2059 36.5417 29.7941C33.2649 31.3824 34.0841 32.9706 34.9033 35.3529C35.7225 37.7353 40.6377 35.3529 44.7338 37.7353C48.8298 40.1176 48.0106 44.8824 44.7338 48.0589Z" fill="#00956A"/>
</svg>
