<svg width="146" height="25" viewBox="0 0 146 25" fill="none" xmlns="http://www.w3.org/2000/svg">
<path d="M5.0492 9.02904C6.3385 7.73974 10.1527 8.22323 11.8986 8.62613C13.1073 9.43193 14.316 7.41743 13.5102 6.20872C12.7044 5 8.27245 5 5.85502 5C3.43758 5 1.02015 7.41743 0.214335 9.83487C-0.591476 12.2523 1.02015 15.4755 2.63177 17.0872C4.24339 18.6988 7.46663 19.1017 9.07825 18.2959C10.6899 17.4901 10.287 16.6843 9.88407 15.4755C9.48116 14.2668 7.06373 15.4755 5.0492 14.2668C3.03468 13.0581 3.43758 10.6407 5.0492 9.02904Z" fill="#00956A"/>
<path d="M10.9508 19.1017C9.6615 20.391 5.84733 19.9075 4.1014 19.5046C2.89269 18.6988 1.68397 20.7133 2.48978 21.922C3.29559 23.1307 7.72755 23.1307 10.145 23.1307C12.5624 23.1307 14.9799 20.7133 15.7857 18.2959C16.5915 15.8784 14.9799 12.6552 13.3682 11.0436C11.7566 9.43195 8.53337 9.02905 6.92175 9.83486C5.31012 10.6407 5.71303 11.4465 6.11593 12.6552C6.51884 13.8639 8.93627 12.6552 10.9508 13.8639C12.9653 15.0726 12.5624 17.4901 10.9508 19.1017Z" fill="#00956A"/>
<path d="M33.012 7.471C33.726 7.471 34.314 7.534 34.776 7.66C35.252 7.772 35.623 7.968 35.889 8.248C36.169 8.514 36.365 8.871 36.477 9.319C36.589 9.753 36.645 10.285 36.645 10.915V12.91C36.645 13.358 36.547 13.673 36.351 13.855C36.155 14.023 35.854 14.107 35.448 14.107H24.843V14.611C24.843 15.269 24.997 15.745 25.305 16.039C25.627 16.333 26.243 16.48 27.153 16.48H35.91C36.162 16.48 36.288 16.606 36.288 16.858V18.622C36.288 18.874 36.162 19 35.91 19H26.859C25.907 19 25.109 18.923 24.465 18.769C23.835 18.615 23.324 18.37 22.932 18.034C22.554 17.684 22.281 17.243 22.113 16.711C21.945 16.165 21.861 15.514 21.861 14.758V11.734C21.861 10.978 21.945 10.334 22.113 9.802C22.281 9.256 22.554 8.815 22.932 8.479C23.324 8.129 23.835 7.877 24.465 7.723C25.109 7.555 25.907 7.471 26.859 7.471H33.012ZM24.843 12.238H33.348C33.586 12.238 33.705 12.119 33.705 11.881V10.999C33.705 10.565 33.614 10.257 33.432 10.075C33.25 9.893 32.914 9.802 32.424 9.802H27.153C26.243 9.802 25.627 9.949 25.305 10.243C24.997 10.523 24.843 10.999 24.843 11.671V12.238ZM41.3923 7.471C41.5463 7.471 41.6653 7.492 41.7493 7.534C41.8333 7.576 41.9173 7.639 42.0013 7.723L46.1383 11.503L50.3803 7.723C50.4503 7.639 50.5273 7.576 50.6113 7.534C50.6953 7.492 50.8143 7.471 50.9683 7.471H53.3413C53.5373 7.471 53.6493 7.541 53.6773 7.681C53.7193 7.807 53.6843 7.926 53.5723 8.038L47.9653 13.183L53.7403 18.454C53.8383 18.566 53.8733 18.685 53.8453 18.811C53.8173 18.937 53.7053 19 53.5093 19H50.8423C50.6883 19 50.5623 18.979 50.4643 18.937C50.3803 18.895 50.3033 18.839 50.2333 18.769L45.7813 14.695L41.2033 18.769C41.1333 18.839 41.0563 18.895 40.9723 18.937C40.8883 18.979 40.7693 19 40.6153 19H38.2423C38.0463 19 37.9273 18.937 37.8853 18.811C37.8573 18.685 37.8993 18.566 38.0113 18.454L43.9333 13.015L38.5153 8.038C38.4033 7.926 38.3613 7.807 38.3893 7.681C38.4173 7.541 38.5293 7.471 38.7253 7.471H41.3923ZM58.0456 7.471C58.3536 7.471 58.5076 7.632 58.5076 7.954V18.538C58.5076 18.846 58.3536 19 58.0456 19H55.9876C55.6796 19 55.5256 18.846 55.5256 18.538V7.954C55.5256 7.632 55.6796 7.471 55.9876 7.471H58.0456ZM58.0456 3.208C58.3536 3.208 58.5076 3.362 58.5076 3.67V5.665C58.5076 5.987 58.3536 6.148 58.0456 6.148H55.9876C55.6656 6.148 55.5046 5.987 55.5046 5.665V3.67C55.5046 3.362 55.6656 3.208 55.9876 3.208H58.0456ZM71.9168 7.471C72.8548 7.471 73.6458 7.555 74.2898 7.723C74.9338 7.877 75.4448 8.129 75.8228 8.479C76.2148 8.815 76.4948 9.256 76.6628 9.802C76.8308 10.334 76.9148 10.978 76.9148 11.734V14.758C76.9148 15.514 76.8308 16.165 76.6628 16.711C76.4948 17.243 76.2148 17.684 75.8228 18.034C75.4448 18.37 74.9338 18.615 74.2898 18.769C73.6458 18.923 72.8548 19 71.9168 19H65.9738C65.0218 19 64.2238 18.923 63.5798 18.769C62.9498 18.615 62.4388 18.37 62.0468 18.034C61.6688 17.684 61.3958 17.243 61.2278 16.711C61.0598 16.165 60.9758 15.514 60.9758 14.758V11.734C60.9758 10.978 61.0598 10.334 61.2278 9.802C61.3958 9.256 61.6688 8.815 62.0468 8.479C62.4388 8.129 62.9498 7.877 63.5798 7.723C64.2238 7.555 65.0218 7.471 65.9738 7.471H71.9168ZM63.9788 14.233C63.9788 14.681 64.0138 15.052 64.0838 15.346C64.1538 15.64 64.2728 15.878 64.4408 16.06C64.6228 16.228 64.8608 16.354 65.1548 16.438C65.4488 16.508 65.8198 16.543 66.2678 16.543H71.6228C72.0848 16.543 72.4628 16.508 72.7568 16.438C73.0508 16.354 73.2818 16.228 73.4498 16.06C73.6318 15.878 73.7578 15.64 73.8278 15.346C73.8978 15.052 73.9328 14.681 73.9328 14.233V12.238C73.9328 11.804 73.8978 11.44 73.8278 11.146C73.7578 10.852 73.6318 10.614 73.4498 10.432C73.2818 10.25 73.0508 10.124 72.7568 10.054C72.4628 9.984 72.0848 9.949 71.6228 9.949H66.2678C65.8198 9.949 65.4488 9.984 65.1548 10.054C64.8608 10.124 64.6228 10.25 64.4408 10.432C64.2728 10.614 64.1538 10.852 64.0838 11.146C64.0138 11.44 63.9788 11.804 63.9788 12.238V14.233ZM92.6892 7.471C92.9412 7.471 93.0672 7.597 93.0672 7.849V9.529C93.0672 9.781 92.9412 9.907 92.6892 9.907H83.2182C82.7842 9.907 82.4832 9.991 82.3152 10.159C82.1472 10.313 82.0632 10.544 82.0632 10.852V11.167C82.0632 11.447 82.1472 11.671 82.3152 11.839C82.4832 11.993 82.7842 12.07 83.2182 12.07H90.2952C91.4712 12.07 92.3112 12.315 92.8152 12.805C93.3192 13.295 93.5712 13.988 93.5712 14.884V16.06C93.5712 16.522 93.5152 16.935 93.4032 17.299C93.2912 17.663 93.1022 17.971 92.8362 18.223C92.5842 18.475 92.2482 18.671 91.8282 18.811C91.4082 18.937 90.8902 19 90.2742 19H79.5222C79.2702 19 79.1442 18.874 79.1442 18.622V16.942C79.1442 16.69 79.2702 16.564 79.5222 16.564H89.4762C89.9102 16.564 90.2112 16.487 90.3792 16.333C90.5612 16.179 90.6522 15.92 90.6522 15.556V14.989C90.6522 14.709 90.5612 14.492 90.3792 14.338C90.2112 14.184 89.9102 14.107 89.4762 14.107H82.4202C81.2442 14.107 80.4042 13.869 79.9002 13.393C79.3962 12.903 79.1442 12.196 79.1442 11.272V10.348C79.1442 9.914 79.2002 9.522 79.3122 9.172C79.4242 8.808 79.6062 8.5 79.8582 8.248C80.1242 7.996 80.4672 7.807 80.8872 7.681C81.3072 7.541 81.8252 7.471 82.4412 7.471H92.6892ZM106.659 7.471C107.597 7.471 108.388 7.555 109.032 7.723C109.676 7.877 110.187 8.129 110.565 8.479C110.957 8.815 111.237 9.256 111.405 9.802C111.573 10.334 111.657 10.978 111.657 11.734V14.758C111.657 15.514 111.573 16.165 111.405 16.711C111.237 17.243 110.957 17.684 110.565 18.034C110.187 18.37 109.676 18.615 109.032 18.769C108.388 18.923 107.597 19 106.659 19H98.7835V23.179C98.7835 23.487 98.6295 23.641 98.3215 23.641H96.2635C95.9415 23.641 95.7805 23.487 95.7805 23.179V11.734C95.7805 10.978 95.8645 10.334 96.0325 9.802C96.2005 9.256 96.4735 8.815 96.8515 8.479C97.2435 8.129 97.7545 7.877 98.3845 7.723C99.0285 7.555 99.8265 7.471 100.779 7.471H106.659ZM98.7835 16.48H106.365C106.827 16.48 107.205 16.445 107.499 16.375C107.793 16.305 108.024 16.179 108.192 15.997C108.374 15.815 108.5 15.577 108.57 15.283C108.64 14.989 108.675 14.618 108.675 14.17V12.301C108.675 11.867 108.64 11.503 108.57 11.209C108.5 10.901 108.374 10.663 108.192 10.495C108.024 10.313 107.793 10.187 107.499 10.117C107.205 10.033 106.827 9.991 106.365 9.991H101.073C100.625 9.991 100.254 10.033 99.9595 10.117C99.6655 10.187 99.4275 10.313 99.2455 10.495C99.0775 10.663 98.9585 10.901 98.8885 11.209C98.8185 11.503 98.7835 11.867 98.7835 12.301V16.48ZM123.46 7.471C124.398 7.471 125.189 7.555 125.833 7.723C126.477 7.877 126.988 8.129 127.366 8.479C127.758 8.815 128.038 9.256 128.206 9.802C128.374 10.334 128.458 10.978 128.458 11.734V17.32C128.458 17.656 128.43 17.936 128.374 18.16C128.332 18.37 128.248 18.538 128.122 18.664C128.01 18.79 127.856 18.881 127.66 18.937C127.464 18.979 127.212 19 126.904 19H116.908C116.292 19 115.774 18.944 115.354 18.832C114.948 18.706 114.619 18.524 114.367 18.286C114.115 18.048 113.933 17.74 113.821 17.362C113.723 16.984 113.674 16.536 113.674 16.018V15.01C113.674 14.576 113.723 14.191 113.821 13.855C113.933 13.505 114.115 13.211 114.367 12.973C114.619 12.735 114.948 12.56 115.354 12.448C115.774 12.322 116.292 12.259 116.908 12.259H125.455V11.86C125.455 11.524 125.42 11.237 125.35 10.999C125.28 10.761 125.161 10.572 124.993 10.432C124.825 10.278 124.594 10.166 124.3 10.096C124.006 10.026 123.628 9.991 123.166 9.991H114.388C114.136 9.991 114.01 9.865 114.01 9.613V7.849C114.01 7.597 114.136 7.471 114.388 7.471H123.46ZM124.846 16.69C125.07 16.69 125.224 16.641 125.308 16.543C125.406 16.431 125.455 16.242 125.455 15.976V14.128H117.769C117.335 14.128 117.027 14.219 116.845 14.401C116.677 14.569 116.593 14.821 116.593 15.157V15.598C116.593 15.976 116.677 16.256 116.845 16.438C117.027 16.606 117.335 16.69 117.769 16.69H124.846ZM145.336 7.471C145.49 7.471 145.588 7.527 145.63 7.639C145.686 7.737 145.679 7.856 145.609 7.996L137.545 22.213C137.265 22.703 136.866 23.06 136.348 23.284C135.844 23.522 135.137 23.641 134.227 23.641H132.757C132.505 23.641 132.379 23.515 132.379 23.263V21.541C132.379 21.289 132.505 21.163 132.757 21.163H133.996C134.528 21.163 134.885 21.002 135.067 20.68L136.201 18.685C135.851 18.657 135.578 18.573 135.382 18.433C135.2 18.293 135.025 18.076 134.857 17.782L129.187 7.996C129.117 7.856 129.103 7.737 129.145 7.639C129.201 7.527 129.306 7.471 129.46 7.471H131.875C132.113 7.471 132.281 7.569 132.379 7.765L137.041 15.85C137.153 16.046 137.237 16.179 137.293 16.249C137.363 16.305 137.447 16.333 137.545 16.333L142.48 7.765C142.578 7.569 142.746 7.471 142.984 7.471H145.336Z" fill="white"/>
</svg>
